<svg width="10" height="11" viewBox="0 0 10 11" fill="none" xmlns="http://www.w3.org/2000/svg">
<path d="M1.84225 10.234C1.33401 10.234 0.899908 10.0539 0.539945 9.69372C0.179982 9.33354 0 8.89868 0 8.38916C0 7.87963 0.180307 7.44598 0.54092 7.08821C0.901542 6.73043 1.33498 6.55155 1.84122 6.55155H2.74676V3.91644H1.84122C1.33498 3.91644 0.901542 3.73635 0.54092 3.37617C0.180307 3.01598 0 2.58113 0 2.0716C0 1.56208 0.180092 1.12843 0.540274 0.770656C0.900457 0.412881 1.33531 0.233994 1.84484 0.233994C2.35436 0.233994 2.78801 0.413733 3.14578 0.773211C3.50356 1.13269 3.68245 1.56669 3.68245 2.07522V2.98076H6.31755V2.07522C6.31755 1.56669 6.49764 1.13269 6.85783 0.773211C7.21801 0.413733 7.65286 0.233994 8.16239 0.233994C8.67191 0.233994 9.10556 0.413632 9.46334 0.772908C9.82111 1.13218 10 1.56594 10 2.07419C10 2.58243 9.82026 3.01653 9.46078 3.3765C9.10131 3.73646 8.6673 3.91644 8.15878 3.91644H7.25324V6.55155H8.15878C8.6673 6.55155 9.10131 6.73118 9.46078 7.09046C9.82026 7.44974 10 7.8835 10 8.39174C10 8.89998 9.82036 9.33409 9.46109 9.69405C9.10181 10.054 8.66805 10.234 8.15981 10.234C7.65156 10.234 7.21746 10.0537 6.8575 9.69307C6.49753 9.33245 6.31755 8.89902 6.31755 8.39277V7.48723H3.68245V8.39277C3.68245 8.89902 3.50281 9.33245 3.14353 9.69307C2.78426 10.0537 2.3505 10.234 1.84225 10.234ZM1.84212 9.29831C2.0939 9.29831 2.30762 9.21027 2.48328 9.03419C2.65893 8.85812 2.74676 8.64431 2.74676 8.39277V7.48723H1.84122C1.58968 7.48723 1.37588 7.57491 1.1998 7.75026C1.02372 7.9256 0.935685 8.13853 0.935685 8.38903C0.935685 8.63953 1.02381 8.8537 1.20006 9.03154C1.37631 9.20939 1.59033 9.29831 1.84212 9.29831ZM8.15967 9.29831C8.41146 9.29831 8.62518 9.21018 8.80083 9.03393C8.97649 8.85768 9.06431 8.64366 9.06431 8.39188C9.06431 8.14009 8.97659 7.92637 8.80115 7.75071C8.62571 7.57506 8.41204 7.48723 8.16012 7.48723H7.25324V8.39181C7.25324 8.64307 7.34136 8.85697 7.51761 9.03351C7.69386 9.21004 7.90788 9.29831 8.15967 9.29831ZM3.68245 6.55155H6.31755V3.91644H3.68245V6.55155ZM1.84122 2.98076H2.74676V2.07387C2.74676 1.82196 2.65909 1.60828 2.48373 1.43285C2.30839 1.2574 2.09546 1.16968 1.84496 1.16968C1.59446 1.16968 1.38029 1.25735 1.20245 1.43271C1.02461 1.60805 0.935685 1.82098 0.935685 2.07148C0.935685 2.32198 1.02372 2.53615 1.1998 2.71399C1.37588 2.89183 1.58968 2.98076 1.84122 2.98076ZM7.25324 2.98076H8.16012C8.41204 2.98076 8.62571 2.89263 8.80115 2.71638C8.97659 2.54013 9.06431 2.32611 9.06431 2.07432C9.06431 1.82254 8.97664 1.60882 8.80129 1.43316C8.62594 1.25751 8.41302 1.16968 8.16251 1.16968C7.91202 1.16968 7.69785 1.2574 7.52 1.43285C7.34216 1.60828 7.25324 1.82196 7.25324 2.07387V2.98076Z" fill="#BCC4C8"/>
</svg>
