<svg width="8" height="6" viewBox="0 0 8 6" fill="none" xmlns="http://www.w3.org/2000/svg">
<path d="M0.167302 5.01174C0.0619295 4.89569 0.0063162 4.76031 0.000462161 4.60559C-0.00539187 4.45087 0.0443674 4.31548 0.14974 4.19944L3.62704 0.370044C3.68558 0.305576 3.74412 0.260448 3.80266 0.234661C3.8612 0.208874 3.92559 0.19598 3.99584 0.19598C4.06609 0.19598 4.13048 0.208874 4.18902 0.234661C4.24756 0.260448 4.3061 0.305576 4.36465 0.370044L7.84194 4.1801C7.94731 4.28325 8 4.41541 8 4.57658C8 4.73775 7.94731 4.87635 7.84194 4.9924C7.73657 5.10844 7.61071 5.16646 7.46436 5.16646C7.31801 5.16646 7.19214 5.10844 7.08677 4.9924L3.99584 1.60783L0.904911 5.03108C0.811246 5.14712 0.691238 5.20192 0.544887 5.19547C0.398537 5.18902 0.272675 5.12778 0.167302 5.01174Z" fill="#BCC4C8"/>
</svg>
