<svg width="9" height="7" viewBox="0 0 9 7" fill="none" xmlns="http://www.w3.org/2000/svg">
<path d="M2.595 6.26971L0.12531 3.80303C0.0793491 3.75706 0.0469718 3.708 0.028178 3.65583C0.00939266 3.60367 0 3.5526 0 3.50262C0 3.44627 0.00939266 3.3936 0.028178 3.34463C0.0469718 3.29566 0.0793491 3.24819 0.12531 3.20222L2.59199 0.738556C2.67753 0.653011 2.78236 0.607638 2.90648 0.602436C3.03059 0.597242 3.13542 0.637414 3.22097 0.722951C3.30651 0.808496 3.34929 0.910729 3.34929 1.02965C3.34929 1.14857 3.30651 1.2508 3.22097 1.33635L1.47082 3.0865H8.14256V1.35057C8.14256 1.22745 8.18324 1.12522 8.26459 1.04387C8.34594 0.962529 8.44817 0.921858 8.57129 0.921858C8.6944 0.921858 8.79663 0.962529 8.87798 1.04387C8.95932 1.12522 9 1.22745 9 1.35057V3.50262C9 3.62574 8.95932 3.72797 8.87798 3.80932C8.79663 3.89066 8.6944 3.93134 8.57129 3.93134H1.48341L3.21796 5.66589C3.30351 5.75144 3.34678 5.85207 3.34778 5.96779C3.34878 6.08353 3.30651 6.18417 3.22097 6.26971C3.13542 6.35525 3.0311 6.39802 2.90799 6.39802C2.78487 6.39802 2.68054 6.35525 2.595 6.26971Z" fill="#BCC4C8"/>
</svg>
