<svg width="22" height="22" viewBox="0 0 22 22" fill="none" xmlns="http://www.w3.org/2000/svg">
<path d="M7.96665 18.5625L3.58014 19.1077C3.39781 19.1077 3.22294 19.0352 3.09401 18.9063C2.96508 18.7774 2.89264 18.6025 2.89264 18.4202L3.43774 14.0336C3.43743 13.9444 3.45473 13.8559 3.48864 13.7733C3.52256 13.6908 3.57243 13.6157 3.6354 13.5524L13.9479 3.23989C14.0119 3.17493 14.0881 3.12335 14.1722 3.08813C14.2563 3.05292 14.3466 3.03479 14.4377 3.03479C14.5289 3.03479 14.6192 3.05292 14.7033 3.08813C14.7874 3.12335 14.8636 3.17493 14.9276 3.23989L18.7604 7.0727C18.8254 7.13668 18.8769 7.21293 18.9122 7.29702C18.9474 7.38112 18.9655 7.47138 18.9655 7.56255C18.9655 7.65372 18.9474 7.74398 18.9122 7.82807C18.8769 7.91217 18.8254 7.98842 18.7604 8.05239L8.4479 18.3649C8.38462 18.4279 8.30954 18.4777 8.22696 18.5116C8.14438 18.5456 8.05592 18.5629 7.96665 18.5625Z" stroke="#8E939C" stroke-width="1.5" stroke-linecap="round" stroke-linejoin="round"/>
<path d="M11.6875 5.5L16.5 10.3125" stroke="#8E939C" stroke-width="1.5" stroke-linecap="round" stroke-linejoin="round"/>
<path d="M12.0312 9.96875L7.5625 14.4375" stroke="#8E939C" stroke-width="1.5" stroke-linecap="round" stroke-linejoin="round"/>
</svg>
