<svg width="10" height="5" viewBox="0 0 10 5" fill="none" xmlns="http://www.w3.org/2000/svg">
<path d="M0.522312 4.27154C0.374872 4.27154 0.250957 4.22135 0.150568 4.12097C0.0501893 4.02058 0 3.89666 0 3.74922V1.02231C0 0.874872 0.0504501 0.750963 0.15135 0.650584C0.25225 0.550195 0.376799 0.5 0.524995 0.5C0.673202 0.5 0.796862 0.550195 0.895973 0.650584C0.995074 0.750963 1.04462 0.874872 1.04462 1.02231V3.22691H8.9517V1.02231C8.9517 0.874872 9.00215 0.750963 9.10305 0.650584C9.20395 0.550195 9.3285 0.5 9.47671 0.5C9.6249 0.5 9.74916 0.550195 9.84949 0.650584C9.94983 0.750963 10 0.874872 10 1.02231V3.74922C10 3.89666 9.94919 4.02058 9.84758 4.12097C9.74597 4.22135 9.62145 4.27154 9.47401 4.27154H0.522312Z" fill="#BCC4C8"/>
</svg>
