<svg width="16" height="11" viewBox="0 0 16 11" fill="none" xmlns="http://www.w3.org/2000/svg">
<path d="M14.867 1.29672L5.86703 10.2967C5.81479 10.349 5.75275 10.3905 5.68447 10.4188C5.61618 10.4471 5.54298 10.4617 5.46906 10.4617C5.39514 10.4617 5.32195 10.4471 5.25366 10.4188C5.18537 10.3905 5.12333 10.349 5.07109 10.2967L1.13359 6.35922C1.02805 6.25367 0.96875 6.11052 0.96875 5.96125C0.96875 5.81198 1.02805 5.66883 1.13359 5.56328C1.23914 5.45773 1.3823 5.39844 1.53156 5.39844C1.68083 5.39844 1.82398 5.45773 1.92953 5.56328L5.46906 9.10352L14.0711 0.500781C14.1766 0.395233 14.3198 0.335937 14.4691 0.335938C14.6183 0.335938 14.7615 0.395233 14.867 0.500781C14.9726 0.606329 15.0319 0.749483 15.0319 0.89875C15.0319 1.04802 14.9726 1.19117 14.867 1.29672Z" fill="#1E95FE"/>
</svg>
