<svg width="14" height="15" viewBox="0 0 14 15" fill="none" xmlns="http://www.w3.org/2000/svg">
    <path d="M3.74999 11.0734C3.92082 11.0734 4.0677 11.012 4.19061 10.8891C4.31352 10.7661 4.37498 10.6193 4.37498 10.4484C4.37498 10.2776 4.31352 10.1307 4.19061 10.0078C4.0677 9.88491 3.92082 9.82345 3.74999 9.82345C3.57916 9.82345 3.43229 9.88491 3.30936 10.0078C3.18645 10.1307 3.12499 10.2776 3.12499 10.4484C3.12499 10.6193 3.18645 10.7661 3.30936 10.8891C3.43229 11.012 3.57916 11.0734 3.74999 11.0734ZM3.74999 8.02343C3.92082 8.02343 4.0677 7.96198 4.19061 7.83906C4.31352 7.71615 4.37498 7.56928 4.37498 7.39844C4.37498 7.2276 4.31352 7.08073 4.19061 6.95781C4.0677 6.8349 3.92082 6.77344 3.74999 6.77344C3.57916 6.77344 3.43229 6.8349 3.30936 6.95781C3.18645 7.08073 3.12499 7.2276 3.12499 7.39844C3.12499 7.56928 3.18645 7.71615 3.30936 7.83906C3.43229 7.96198 3.57916 8.02343 3.74999 8.02343ZM3.74999 4.97343C3.92082 4.97343 4.0677 4.91197 4.19061 4.78906C4.31352 4.66614 4.37498 4.51927 4.37498 4.34843C4.37498 4.17761 4.31352 4.03073 4.19061 3.90781C4.0677 3.78489 3.92082 3.72344 3.74999 3.72344C3.57916 3.72344 3.43229 3.78489 3.30936 3.90781C3.18645 4.03073 3.12499 4.17761 3.12499 4.34843C3.12499 4.51927 3.18645 4.66614 3.30936 4.78906C3.43229 4.91197 3.57916 4.97343 3.74999 4.97343ZM6.15001 11.0734H10.7V9.82345H6.15001V11.0734ZM6.15001 8.02343H10.7V6.77344H6.15001V8.02343ZM6.15001 4.97343H10.7V3.72344H6.15001V4.97343ZM1.49999 14.1484C1.16249 14.1484 0.869781 14.0245 0.621869 13.7766C0.373956 13.5287 0.25 13.236 0.25 12.8984V1.89843C0.25 1.56093 0.373956 1.26822 0.621869 1.02031C0.869781 0.772394 1.16249 0.648438 1.49999 0.648438H12.5C12.8375 0.648438 13.1302 0.772394 13.3781 1.02031C13.626 1.26822 13.75 1.56093 13.75 1.89843V12.8984C13.75 13.236 13.626 13.5287 13.3781 13.7766C13.1302 14.0245 12.8375 14.1484 12.5 14.1484H1.49999ZM1.49999 12.8984H12.5V1.89843H1.49999V12.8984Z" fill="#1E95FE"/>
</svg>
