<svg width="18" height="19" viewBox="0 0 18 19" fill="none" xmlns="http://www.w3.org/2000/svg">
    <g clip-path="url(#clip0_5187_123958)">
        <path d="M4.5 11.6484C5.74264 11.6484 6.75 10.6411 6.75 9.39844C6.75 8.1558 5.74264 7.14844 4.5 7.14844C3.25736 7.14844 2.25 8.1558 2.25 9.39844C2.25 10.6411 3.25736 11.6484 4.5 11.6484Z" stroke="#1E95FE" stroke-width="1.2" stroke-linecap="round" stroke-linejoin="round"/>
        <path d="M12.375 16.7109C13.6176 16.7109 14.625 15.7036 14.625 14.4609C14.625 13.2183 13.6176 12.2109 12.375 12.2109C11.1324 12.2109 10.125 13.2183 10.125 14.4609C10.125 15.7036 11.1324 16.7109 12.375 16.7109Z" stroke="#1E95FE" stroke-width="1.2" stroke-linecap="round" stroke-linejoin="round"/>
        <path d="M12.375 6.58594C13.6176 6.58594 14.625 5.57858 14.625 4.33594C14.625 3.0933 13.6176 2.08594 12.375 2.08594C11.1324 2.08594 10.125 3.0933 10.125 4.33594C10.125 5.57858 11.1324 6.58594 12.375 6.58594Z" stroke="#1E95FE" stroke-width="1.2" stroke-linecap="round" stroke-linejoin="round"/>
        <path d="M10.4834 5.55273L6.39258 8.18242" stroke="#1E95FE" stroke-width="1.2" stroke-linecap="round" stroke-linejoin="round"/>
        <path d="M6.39258 10.6152L10.4834 13.2449" stroke="#1E95FE" stroke-width="1.2" stroke-linecap="round" stroke-linejoin="round"/>
    </g>
    <defs>
        <clipPath id="clip0_5187_123958">
            <rect width="18" height="18" fill="white" transform="translate(0 0.398438)"/>
        </clipPath>
    </defs>
</svg>
