<svg width="18" height="19" viewBox="0 0 18 19" fill="none" xmlns="http://www.w3.org/2000/svg">
    <path d="M12 10.8609C11.3667 10.8609 10.8375 10.6484 10.4125 10.2234C9.98749 9.79844 9.77499 9.26927 9.77499 8.63593C9.77499 8.00261 9.98749 7.47344 10.4125 7.04844C10.8375 6.62344 11.3667 6.41094 12 6.41094C12.6333 6.41094 13.1625 6.62344 13.5875 7.04844C14.0125 7.47344 14.225 8.00261 14.225 8.63593C14.225 9.26927 14.0125 9.79844 13.5875 10.2234C13.1625 10.6484 12.6333 10.8609 12 10.8609ZM7.5 15.3984V14.0984C7.5 13.8537 7.55833 13.6207 7.67499 13.3993C7.79167 13.1779 7.95001 13.0151 8.15001 12.911C8.71251 12.5318 9.32188 12.2495 9.97813 12.0641C10.6344 11.8787 11.3083 11.786 12 11.786C12.6917 11.786 13.3635 11.8849 14.0156 12.0828C14.6677 12.2807 15.2792 12.5568 15.85 12.911C16.0417 13.0401 16.1979 13.2089 16.3187 13.4172C16.4396 13.6255 16.5 13.8526 16.5 14.0984V15.3984H7.5ZM8.72499 14.0109V14.1484H15.275V14.0109C14.8042 13.7109 14.275 13.4734 13.6875 13.2984C13.1 13.1234 12.5375 13.0359 12 13.0359C11.4625 13.0359 10.8979 13.1234 10.3062 13.2984C9.71458 13.4734 9.18749 13.7109 8.72499 14.0109ZM12 9.61095C12.2875 9.61095 12.5219 9.52033 12.7031 9.33908C12.8844 9.15781 12.975 8.92343 12.975 8.63593C12.975 8.34843 12.8844 8.11406 12.7031 7.93281C12.5219 7.75156 12.2875 7.66093 12 7.66093C11.7125 7.66093 11.4781 7.75156 11.2969 7.93281C11.1156 8.11406 11.025 8.34843 11.025 8.63593C11.025 8.92343 11.1156 9.15781 11.2969 9.33908C11.4781 9.52033 11.7125 9.61095 12 9.61095ZM2.25 10.7734V9.52344H8.07499V10.7734H2.25ZM2.25 4.64843V3.39844H11.1625V4.64843H2.25ZM8.63751 7.71094H2.25V6.46093H9.25001C9.10001 6.64011 8.97511 6.83353 8.87529 7.04119C8.77548 7.24886 8.69622 7.47211 8.63751 7.71094Z" fill="#1E95FE"/>
</svg>
