<svg width="16" height="16" viewBox="0 0 16 16" fill="none" xmlns="http://www.w3.org/2000/svg">
    <path d="M6.89373 11.1601L11.9476 6.10623L11.2942 5.46442L6.89373 9.87211L4.67259 7.65095L4.03797 8.29276L6.89373 11.1601ZM8.00124 15.125C7.02347 15.125 6.10224 14.938 5.23754 14.564C4.37284 14.19 3.61666 13.6793 2.969 13.0319C2.32133 12.3845 1.81041 11.6287 1.43624 10.7644C1.06208 9.90003 0.875 8.97899 0.875 8.00124C0.875 7.01579 1.062 6.08951 1.436 5.22241C1.81 4.3553 2.32069 3.60104 2.96806 2.95963C3.61545 2.3182 4.3713 1.81041 5.23561 1.43624C6.09994 1.06208 7.02098 0.875 7.99873 0.875C8.98418 0.875 9.91045 1.062 10.7776 1.436C11.6447 1.81 12.3989 2.31756 13.0403 2.95869C13.6818 3.59983 14.1896 4.35376 14.5637 5.22048C14.9379 6.08719 15.125 7.01327 15.125 7.99872C15.125 8.97649 14.938 9.89772 14.564 10.7624C14.19 11.6271 13.6824 12.3833 13.0413 13.031C12.4001 13.6786 11.6462 14.1896 10.7795 14.5637C9.91277 14.9379 8.98669 15.125 8.00124 15.125Z" fill="#27AE60"/>
</svg>
