<svg width="16" height="15" viewBox="0 0 16 15" fill="none" xmlns="http://www.w3.org/2000/svg">
<path d="M15.6422 12.2187L9.46176 1.53117C9.3138 1.27413 9.1007 1.06063 8.84394 0.912171C8.58719 0.763713 8.29584 0.685547 7.99926 0.685547C7.70267 0.685547 7.41132 0.763713 7.15457 0.912171C6.89781 1.06063 6.68472 1.27413 6.53676 1.53117L0.356287 12.2187C0.206148 12.4744 0.126357 12.7653 0.125017 13.0619C0.123677 13.3584 0.200837 13.6501 0.34866 13.9071C0.496483 14.1642 0.709705 14.3776 0.966673 14.5256C1.22364 14.6737 1.51521 14.751 1.81176 14.7499H14.1868C14.4833 14.751 14.7749 14.6737 15.0318 14.5256C15.2888 14.3776 15.502 14.1642 15.6499 13.9071C15.7977 13.6501 15.8748 13.3584 15.8735 13.0619C15.8722 12.7653 15.7924 12.4744 15.6422 12.2187ZM7.43676 6.31242C7.43676 6.16324 7.49602 6.02017 7.60151 5.91468C7.707 5.80919 7.85007 5.74992 7.99926 5.74992C8.14844 5.74992 8.29152 5.80919 8.39701 5.91468C8.50249 6.02017 8.56176 6.16324 8.56176 6.31242V9.12492C8.56176 9.27411 8.50249 9.41718 8.39701 9.52267C8.29152 9.62816 8.14844 9.68743 7.99926 9.68743C7.85007 9.68743 7.707 9.62816 7.60151 9.52267C7.49602 9.41718 7.43676 9.27411 7.43676 9.12492V6.31242ZM7.99926 12.4999C7.83238 12.4999 7.66925 12.4504 7.53049 12.3577C7.39174 12.265 7.28359 12.1332 7.21973 11.9791C7.15587 11.8249 7.13916 11.6552 7.17172 11.4916C7.20428 11.3279 7.28463 11.1776 7.40264 11.0596C7.52064 10.9416 7.67098 10.8612 7.83465 10.8286C7.99832 10.7961 8.16797 10.8128 8.32215 10.8767C8.47632 10.9405 8.6081 11.0487 8.70081 11.1874C8.79352 11.3262 8.84301 11.4893 8.84301 11.6562C8.84301 11.88 8.75411 12.0946 8.59588 12.2528C8.43764 12.411 8.22303 12.4999 7.99926 12.4999Z" fill="#F4BC0B"/>
</svg>
