<svg width="18" height="18" viewBox="0 0 18 18" fill="none" xmlns="http://www.w3.org/2000/svg">
    <path d="M8.99633 17.2125C8.83602 17.2125 8.70273 17.1586 8.59648 17.0509C8.49023 16.943 8.43711 16.8094 8.43711 16.65V15.8062C6.72461 15.6312 5.29961 14.975 4.16211 13.8375C3.02461 12.7 2.36836 11.275 2.19336 9.5625H1.34961C1.19023 9.5625 1.05664 9.50828 0.948828 9.39984C0.841016 9.29139 0.787109 9.15702 0.787109 8.99672C0.787109 8.8364 0.841016 8.70312 0.948828 8.59687C1.05664 8.49062 1.19023 8.4375 1.34961 8.4375H2.19336C2.36836 6.725 3.02461 5.3 4.16211 4.1625C5.29961 3.025 6.72461 2.36875 8.43711 2.19375V1.35C8.43711 1.19062 8.49133 1.05703 8.59976 0.949217C8.70821 0.841405 8.84259 0.787498 9.00289 0.787498C9.1632 0.787498 9.29648 0.841405 9.40273 0.949217C9.50898 1.05703 9.56211 1.19062 9.56211 1.35V2.19375C11.2746 2.36875 12.6996 3.025 13.8371 4.1625C14.9746 5.3 15.6309 6.725 15.8059 8.4375H16.6496C16.809 8.4375 16.9426 8.49172 17.0504 8.60015C17.1582 8.7086 17.2121 8.84298 17.2121 9.00328C17.2121 9.16359 17.1582 9.29687 17.0504 9.40312C16.9426 9.50937 16.809 9.5625 16.6496 9.5625H15.8059C15.6309 11.275 14.9746 12.7 13.8371 13.8375C12.6996 14.975 11.2746 15.6312 9.56211 15.8062V16.65C9.56211 16.8094 9.50789 16.943 9.39945 17.0509C9.291 17.1586 9.15663 17.2125 8.99633 17.2125ZM8.99961 14.7C10.5621 14.7 11.9027 14.1406 13.0215 13.0219C14.1402 11.9031 14.6996 10.5625 14.6996 9C14.6996 7.4375 14.1402 6.09687 13.0215 4.97812C11.9027 3.85937 10.5621 3.3 8.99961 3.3C7.43711 3.3 6.09648 3.85937 4.97773 4.97812C3.85898 6.09687 3.29961 7.4375 3.29961 9C3.29961 10.5625 3.85898 11.9031 4.97773 13.0219C6.09648 14.1406 7.43711 14.7 8.99961 14.7ZM8.99961 11.8125C8.21211 11.8125 7.54648 11.5406 7.00273 10.9969C6.45898 10.4531 6.18711 9.7875 6.18711 9C6.18711 8.2125 6.45898 7.54687 7.00273 7.00312C7.54648 6.45937 8.21211 6.1875 8.99961 6.1875C9.78711 6.1875 10.4527 6.45937 10.9965 7.00312C11.5402 7.54687 11.8121 8.2125 11.8121 9C11.8121 9.7875 11.5402 10.4531 10.9965 10.9969C10.4527 11.5406 9.78711 11.8125 8.99961 11.8125ZM8.99961 10.6875C9.47461 10.6875 9.87461 10.525 10.1996 10.2C10.5246 9.875 10.6871 9.475 10.6871 9C10.6871 8.525 10.5246 8.125 10.1996 7.8C9.87461 7.475 9.47461 7.3125 8.99961 7.3125C8.52461 7.3125 8.12461 7.475 7.79961 7.8C7.47461 8.125 7.31211 8.525 7.31211 9C7.31211 9.475 7.47461 9.875 7.79961 10.2C8.12461 10.525 8.52461 10.6875 8.99961 10.6875Z" fill="#1E95FE"/>
</svg>
