<svg width="18" height="18" viewBox="0 0 18 18" fill="none" xmlns="http://www.w3.org/2000/svg">
    <path d="M5.48828 12.6997C5.48828 12.3695 5.7559 12.1019 6.08603 12.1019H11.7069C12.0371 12.1019 12.3047 12.3695 12.3047 12.6997C12.3047 13.0298 12.0371 13.2974 11.7069 13.2974H6.08603C5.7559 13.2974 5.48828 13.0298 5.48828 12.6997Z" fill="#1E95FE"/>
    <path d="M5.99674 8.81822C6.08268 8.49948 6.41074 8.31075 6.72948 8.39669L12.1566 9.85994C12.4753 9.94588 12.6641 10.2739 12.5781 10.5927C12.4922 10.9114 12.1641 11.1002 11.8454 11.0142L6.41827 9.55097C6.09952 9.46503 5.9108 9.13697 5.99674 8.81822Z" fill="#1E95FE"/>
    <path d="M7.49667 5.22765C7.66247 4.94217 8.0283 4.84516 8.31377 5.01096L13.1744 7.83392C13.4598 7.99972 13.5569 8.36555 13.3911 8.65102C13.2253 8.9365 12.8594 9.03351 12.574 8.86771L7.71336 6.04474C7.42789 5.87895 7.33087 5.51312 7.49667 5.22765Z" fill="#1E95FE"/>
    <path d="M9.87141 2.14997C10.1042 1.91593 10.4827 1.91493 10.7167 2.14775L14.7017 6.1119C14.9358 6.34473 14.9368 6.7232 14.704 6.95724C14.4711 7.19129 14.0927 7.19228 13.8586 6.95946L9.87362 2.99531C9.63958 2.76249 9.63858 2.38402 9.87141 2.14997Z" fill="#1E95FE"/>
    <path d="M2.89844 10.6226C2.89844 10.2912 3.16707 10.0226 3.49844 10.0226C3.82981 10.0226 4.09844 10.2912 4.09844 10.6226V15.0226H2.89844V10.6226Z" fill="#1E95FE"/>
    <path d="M13.8984 10.6226C13.8984 10.2912 14.1671 10.0226 14.4984 10.0226C14.8298 10.0226 15.0984 10.2912 15.0984 10.6226V15.0226H13.8984V10.6226Z" fill="#1E95FE"/>
    <path d="M2.89844 14.8262H15.0977V15.0262C15.0977 15.5785 14.6499 16.0262 14.0977 16.0262H3.89844C3.34615 16.0262 2.89844 15.5785 2.89844 15.0262V14.8262Z" fill="#1E95FE"/>
</svg>
