<svg width="18" height="18" viewBox="0 0 18 18" fill="none" xmlns="http://www.w3.org/2000/svg">
    <g clip-path="url(#clip0_3885_49748)">
        <path d="M4.3425 17V15.3778L5.4 14.3333H1.35C0.99 14.3333 0.675 14.2 0.405 13.9333C0.135 13.6667 0 13.3556 0 13V2.33333C0 1.97778 0.135 1.66667 0.405 1.4C0.675 1.13333 0.99 1 1.35 1H10.2825V2.33333H1.35V13H16.65V9.91111H18V13C18 13.3556 17.865 13.6667 17.595 13.9333C17.325 14.2 17.01 14.3333 16.65 14.3333H12.6L13.68 15.3778V17H4.3425Z" fill="#1E95FE"/>
        <path d="M13.8312 4.30685L14.8182 5.29383L17.0846 3.02734C17.2195 2.89243 17.2869 2.73047 17.2868 2.54144C17.2866 2.35242 17.2166 2.188 17.0768 2.04818C16.937 1.90835 16.7733 1.83769 16.5856 1.8362C16.3979 1.8347 16.2353 1.90275 16.0977 2.04036L13.8312 4.30685ZM10.4002 3.78991L15.3351 8.72482L16.3064 7.75346L11.3715 2.81856L10.4002 3.78991ZM7.93109 5.20622L9.03322 6.30835L9.76174 5.57984C9.83054 5.51103 9.912 5.47714 10.0061 5.47817C10.1002 5.47919 10.1824 5.51487 10.2528 5.58518C10.3231 5.65551 10.3583 5.73724 10.3583 5.8304C10.3584 5.92355 10.324 6.00452 10.2552 6.07333L9.52671 6.80184L10.6782 7.95332L11.4067 7.22481C11.4755 7.156 11.557 7.12211 11.6511 7.12313C11.7452 7.12416 11.8274 7.15984 11.8977 7.23015C11.968 7.30048 12.0032 7.38221 12.0033 7.47536C12.0034 7.56851 11.969 7.64949 11.9002 7.7183L11.1717 8.44681L12.3232 9.59829L13.0517 8.86977C13.1205 8.80097 13.2019 8.76708 13.296 8.7681C13.3902 8.76913 13.4724 8.8048 13.5427 8.87512C13.613 8.94544 13.6482 9.02718 13.6483 9.12033C13.6483 9.21348 13.614 9.29446 13.5452 9.36326L12.8166 10.0918L13.9188 11.1939L15.1265 9.16375L9.96125 3.99855L7.93109 5.20622ZM13.2193 11.4657L7.65926 5.90574C7.44542 5.6919 7.35634 5.43553 7.39203 5.13665C7.42772 4.83776 7.57551 4.6132 7.83541 4.46297L10.0686 3.13453L10.7162 2.48696C10.8942 2.30888 11.1111 2.22086 11.3668 2.2229C11.6225 2.22494 11.8408 2.31643 12.0217 2.49738L13.3377 3.81336L15.6042 1.54687C15.874 1.27705 16.1993 1.14366 16.5801 1.1467C16.9609 1.14974 17.2883 1.28834 17.5625 1.5625C17.8367 1.83666 17.9753 2.16414 17.9783 2.54492C17.9813 2.92571 17.8479 3.25101 17.5781 3.52083L15.3116 5.78732L16.6276 7.10329C16.8086 7.28424 16.9001 7.50255 16.9021 7.75822C16.9041 8.01389 16.8161 8.23077 16.638 8.40885L15.9905 9.05641L14.662 11.2896C14.5118 11.5495 14.2872 11.6973 13.9884 11.733C13.6895 11.7687 13.4331 11.6796 13.2193 11.4657Z" fill="#1E95FE"/>
        <rect x="6" y="14" width="6" height="2" fill="white"/>
    </g>
    <defs>
        <clipPath id="clip0_3885_49748">
            <rect width="18" height="18" fill="white"/>
        </clipPath>
    </defs>
</svg>
