<svg width="18" height="19" viewBox="0 0 18 19" fill="none" xmlns="http://www.w3.org/2000/svg">
    <g clip-path="url(#clip0_5144_30647)">
        <path d="M8.64761 11.2018L10.3577 9.49177L12.0677 11.2018L13.0177 10.2518L11.3077 8.54176L13.0177 6.83172L12.0677 5.88169L10.3577 7.59173L8.64761 5.88169L7.6976 6.83172L9.40764 8.54176L7.6976 10.2518L8.64761 11.2018ZM4.92894 15.3276C4.5625 15.3276 4.24469 15.1931 3.97552 14.9239C3.70636 14.6547 3.57177 14.3369 3.57177 13.9705V3.11302C3.57177 2.74659 3.70636 2.42878 3.97552 2.15961C4.24469 1.89044 4.5625 1.75586 4.92894 1.75586H15.7864C16.1528 1.75586 16.4706 1.89044 16.7398 2.15961C17.009 2.42878 17.1436 2.74659 17.1436 3.11302V13.9705C17.1436 14.3369 17.009 14.6547 16.7398 14.9239C16.4706 15.1931 16.1528 15.3276 15.7864 15.3276H4.92894ZM4.92894 13.9705H15.7864V3.11302H4.92894V13.9705ZM2.21459 18.042C1.84815 18.042 1.53034 17.9074 1.26118 17.6382C0.992006 17.3691 0.857422 17.0513 0.857422 16.6848V4.47021H2.21459V16.6848H14.4292V18.042H2.21459Z" fill="#BCC4C8"/>
    </g>
    <defs>
        <clipPath id="clip0_5144_30647">
            <rect width="18" height="18" fill="white" transform="translate(0 0.898438)"/>
        </clipPath>
    </defs>
</svg>
