<svg width="18" height="19" viewBox="0 0 18 19" fill="none" xmlns="http://www.w3.org/2000/svg">
    <path d="M12.3787 17.472V14.7684H9.67512V13.2664H12.3787V10.5627H13.8807V13.2664H16.5843V14.7684H13.8807V17.472H12.3787ZM1.41406 14.9411V13.4391H7.91024C7.89524 13.7145 7.88898 13.9598 7.89147 14.1751C7.89398 14.3903 7.91777 14.6457 7.96283 14.9411H1.41406ZM1.41406 11.2461V9.74416H10.0656C9.77774 9.94727 9.51802 10.1758 9.28647 10.4297C9.05491 10.6836 8.849 10.9558 8.66876 11.2461H1.41406ZM1.41406 7.53618V6.03419H14.9321V7.53618H1.41406ZM1.41406 3.82621V2.32422H14.9321V3.82621H1.41406Z" fill="#BCC4C8"/>
</svg>
