<svg width="18" height="19" viewBox="0 0 18 19" fill="none" xmlns="http://www.w3.org/2000/svg">
    <g clip-path="url(#clip0_5144_30638)">
        <path d="M2.51931 16.516C2.14706 16.516 1.82422 16.3792 1.55078 16.1058C1.27734 15.8324 1.14062 15.5095 1.14062 15.1373V3.00467C1.14062 2.63242 1.27734 2.30957 1.55078 2.03613C1.82422 1.7627 2.14706 1.62598 2.51931 1.62598H14.6519C15.0242 1.62598 15.347 1.7627 15.6205 2.03613C15.8939 2.30957 16.0306 2.63242 16.0306 3.00467V10.7875C15.8224 10.6641 15.6026 10.5632 15.3712 10.4847C15.1399 10.4062 14.9001 10.3394 14.6519 10.2842V3.00467H2.51931V15.1373H8.86138C8.87056 15.3808 8.89159 15.6171 8.92447 15.8461C8.95735 16.0751 9.01215 16.2984 9.08886 16.516H2.51931ZM12.9975 18.1704V15.6887H10.5158V14.3101H12.9975V11.8284H14.3762V14.3101H16.8578V15.6887H14.3762V18.1704H12.9975ZM5.00098 13.1244C5.18941 13.1244 5.3514 13.0566 5.48697 12.921C5.62254 12.7854 5.69032 12.6234 5.69032 12.435C5.69032 12.2466 5.62254 12.0846 5.48697 11.949C5.3514 11.8135 5.18941 11.7457 5.00098 11.7457C4.81257 11.7457 4.65057 11.8135 4.51499 11.949C4.37942 12.0846 4.31163 12.2466 4.31163 12.435C4.31163 12.6234 4.37942 12.7854 4.51499 12.921C4.65057 13.0566 4.81257 13.1244 5.00098 13.1244ZM5.00098 9.76032C5.18941 9.76032 5.3514 9.69253 5.48697 9.55696C5.62254 9.4214 5.69032 9.2594 5.69032 9.07097C5.69032 8.88254 5.62254 8.72055 5.48697 8.58498C5.3514 8.44941 5.18941 8.38163 5.00098 8.38163C4.81257 8.38163 4.65057 8.44941 4.51499 8.58498C4.37942 8.72055 4.31163 8.88254 4.31163 9.07097C4.31163 9.2594 4.37942 9.4214 4.51499 9.55696C4.65057 9.69253 4.81257 9.76032 5.00098 9.76032ZM5.00098 6.39627C5.18941 6.39627 5.3514 6.32849 5.48697 6.19292C5.62254 6.05735 5.69032 5.89536 5.69032 5.70693C5.69032 5.51852 5.62254 5.35652 5.48697 5.22094C5.3514 5.08537 5.18941 5.01759 5.00098 5.01759C4.81257 5.01759 4.65057 5.08537 4.51499 5.22094C4.37942 5.35652 4.31163 5.51852 4.31163 5.70693C4.31163 5.89536 4.37942 6.05735 4.51499 6.19292C4.65057 6.32849 4.81257 6.39627 5.00098 6.39627ZM7.64811 9.76032H12.6666V8.38163H7.64811V9.76032ZM7.64811 6.39627H12.6666V5.01759H7.64811V6.39627ZM7.64811 13.1244H9.24742C9.35771 12.8624 9.48868 12.6188 9.64033 12.3937C9.79199 12.1685 9.95973 11.9525 10.1436 11.7457H7.64811V13.1244Z" fill="#1E95FE"/>
    </g>
    <defs>
        <clipPath id="clip0_5144_30638">
            <rect width="18" height="18" fill="white" transform="translate(0 0.898438)"/>
        </clipPath>
    </defs>
</svg>
