<svg width="18" height="19" viewBox="0 0 18 19" fill="none" xmlns="http://www.w3.org/2000/svg">
    <path d="M4.24999 17.3984C3.91249 17.3984 3.61978 17.2745 3.37187 17.0266C3.12396 16.7787 3 16.486 3 16.1484V3.64843C3 3.31093 3.12396 3.01822 3.37187 2.77031C3.61978 2.52239 3.91249 2.39844 4.24999 2.39844H10.7625L15 6.63594V10.561C14.8042 10.4818 14.6021 10.4203 14.3938 10.3766C14.1854 10.3328 13.9708 10.3026 13.75 10.2859V7.22343H10.1375V3.64843H4.24999V16.1484H9.78752C9.90418 16.386 10.0375 16.6089 10.1875 16.8172C10.3375 17.0255 10.5084 17.2193 10.7 17.3984H4.24999ZM11.925 16.8484L11.05 15.9734L12.625 14.3984L11.05 12.8234L11.925 11.9485L13.5 13.5234L15.075 11.9485L15.95 12.8234L14.3937 14.3984L15.95 15.9734L15.075 16.8484L13.5 15.2922L11.925 16.8484Z" fill="#BCC4C8"/>
</svg>