<svg width="18" height="19" viewBox="0 0 18 19" fill="none" xmlns="http://www.w3.org/2000/svg">
    <g clip-path="url(#clip0_5144_30653)">
        <path d="M5.67773 15.3984V10.5563C5.67773 10.1964 5.80013 9.88833 6.04492 9.63205C6.2897 9.37577 6.58397 9.24763 6.92772 9.24763H13.1777V3.75114L11.6527 5.34774L10.7777 4.43166L13.8027 1.26465L16.8277 4.43166L15.9527 5.34774L14.4277 3.75114V9.24763C14.4277 9.60752 14.3053 9.9156 14.0605 10.1719C13.8158 10.4282 13.5215 10.5563 13.1777 10.5563H6.92772V15.3984H5.67773Z" fill="#BCC4C8"/>
        <path d="M9.05273 3.89844H2.55273C2.00045 3.89844 1.55273 4.34615 1.55273 4.89844V16.8984C1.55273 17.4507 2.00045 17.8984 2.55273 17.8984H12.5527C13.105 17.8984 13.5527 17.4507 13.5527 16.8984V12.5881" stroke="#BCC4C8" stroke-width="1.2" stroke-linecap="round"/>
    </g>
    <defs>
        <clipPath id="clip0_5144_30653">
            <rect width="18" height="18" fill="white" transform="translate(0 0.898438)"/>
        </clipPath>
    </defs>
</svg>