<svg width="18" height="19" viewBox="0 0 18 19" fill="none" xmlns="http://www.w3.org/2000/svg">
    <path d="M8.24902 15.8984C8.03652 15.8984 7.8584 15.8266 7.71465 15.6828C7.5709 15.5391 7.49902 15.3609 7.49902 15.1484V10.6484L3.06152 4.98594C2.88235 4.76094 2.85632 4.52344 2.98341 4.27344C3.11048 4.02344 3.31569 3.89844 3.59902 3.89844H14.399C14.6824 3.89844 14.8876 4.02344 15.0146 4.27344C15.1417 4.52344 15.1157 4.76094 14.9365 4.98594L10.499 10.6484V15.1484C10.499 15.3609 10.4271 15.5391 10.2834 15.6828C10.1396 15.8266 9.96152 15.8984 9.74902 15.8984H8.24902ZM8.99902 10.5235L13.2365 5.14843H4.7615L8.99902 10.5235Z" fill="#1E95FE"/>
</svg>