<svg width="18" height="18" viewBox="0 0 18 18" fill="none" xmlns="http://www.w3.org/2000/svg">
<path d="M16 6.08068V15.3636C16 15.5324 15.933 15.6943 15.8136 15.8136C15.6943 15.933 15.5324 16 15.3636 16H2.63636C2.46759 16 2.30573 15.933 2.18639 15.8136C2.06705 15.6943 2 15.5324 2 15.3636V2.63637C2 2.46759 2.06705 2.30573 2.18639 2.18639C2.30573 2.06705 2.46759 2 2.63636 2H11.9193C12.0019 1.99971 12.0838 2.01572 12.1603 2.04712C12.2367 2.07851 12.3062 2.12467 12.3648 2.18296L15.817 5.63523C15.8753 5.6938 15.9215 5.7633 15.9529 5.83974C15.9843 5.91617 16.0003 5.99805 16 6.08068Z" stroke="#1E95FE" stroke-width="1.2" stroke-linecap="round" stroke-linejoin="round"/>
<path d="M5.625 15.1875V10.6875C5.625 10.5383 5.68426 10.3952 5.78975 10.2898C5.89524 10.1843 6.03832 10.125 6.1875 10.125H11.8125C11.9617 10.125 12.1048 10.1843 12.2102 10.2898C12.3157 10.3952 12.375 10.5383 12.375 10.6875V15.1875" stroke="#1E95FE" stroke-width="1.2" stroke-linecap="round" stroke-linejoin="round"/>
<path d="M10.6875 5.0625H6.75" stroke="#1E95FE" stroke-width="1.2" stroke-linecap="round" stroke-linejoin="round"/>
</svg>
