<svg width="18" height="18" viewBox="0 0 18 18" fill="none" xmlns="http://www.w3.org/2000/svg">
<path d="M8.99028 13.8C8.1412 13.8 7.32778 13.9433 6.55 14.23C5.77222 14.5167 5.03333 14.9667 4.33333 15.58V15.8H13.6667V15.7C13.0185 15.1 12.2894 14.6333 11.4792 14.3C10.669 13.9667 9.83935 13.8 8.99028 13.8ZM3.16667 15C3.91852 14.24 4.79676 13.65 5.80139 13.23C6.80602 12.81 7.87222 12.6 9 12.6C10.1278 12.6 11.1907 12.81 12.1889 13.23C13.187 13.65 14.0685 14.24 14.8333 15V3.4H3.16667V15ZM9 10.72C8.26111 10.72 7.63565 10.4567 7.12361 9.93C6.61157 9.40333 6.35556 8.76 6.35556 8C6.35556 7.24 6.61157 6.59667 7.12361 6.07C7.63565 5.54333 8.26111 5.28 9 5.28C9.73889 5.28 10.3644 5.54333 10.8764 6.07C11.3884 6.59667 11.6444 7.24 11.6444 8C11.6444 8.76 11.3884 9.40333 10.8764 9.93C10.3644 10.4567 9.73889 10.72 9 10.72ZM9.00457 9.52C9.41634 9.52 9.76481 9.37177 10.05 9.0753C10.3352 8.77882 10.4778 8.41882 10.4778 7.9953C10.4778 7.57177 10.3337 7.21333 10.0454 6.92C9.75719 6.62667 9.40719 6.48 8.99543 6.48C8.58366 6.48 8.23519 6.62823 7.95 6.9247C7.66481 7.22118 7.52222 7.58118 7.52222 8.0047C7.52222 8.42823 7.66634 8.78667 7.95457 9.08C8.24281 9.37333 8.59281 9.52 9.00457 9.52ZM3.16667 17C2.85556 17 2.58333 16.88 2.35 16.64C2.11667 16.4 2 16.12 2 15.8V3.4C2 3.08 2.11667 2.8 2.35 2.56C2.58333 2.32 2.85556 2.2 3.16667 2.2H4.43056V1.64C4.43056 1.45867 4.49019 1.30667 4.60944 1.184C4.7287 1.06133 4.87648 1 5.05278 1C5.23458 1 5.38698 1.06133 5.50998 1.184C5.63295 1.30667 5.69444 1.45867 5.69444 1.64V2.2H12.3056V1.64C12.3056 1.45867 12.3652 1.30667 12.4844 1.184C12.6037 1.06133 12.7515 1 12.9278 1C13.1096 1 13.262 1.06133 13.385 1.184C13.508 1.30667 13.5694 1.45867 13.5694 1.64V2.2H14.8333C15.1444 2.2 15.4167 2.32 15.65 2.56C15.8833 2.8 16 3.08 16 3.4V15.8C16 16.12 15.8833 16.4 15.65 16.64C15.4167 16.88 15.1444 17 14.8333 17H3.16667ZM9 15.8H13.6667H4.33333H9Z" fill="#1E95FE"/>
</svg>
