<svg width="18" height="19" viewBox="0 0 18 19" fill="none" xmlns="http://www.w3.org/2000/svg">
    <g clip-path="url(#clip0_5144_30664)">
        <path d="M13.5879 5.49843C13.8502 5.49843 14.0698 5.40974 14.2469 5.23237C14.424 5.05499 14.5125 4.83521 14.5125 4.57301C14.5125 4.31079 14.4238 4.09114 14.2464 3.91406C14.0691 3.73697 13.8493 3.64843 13.5871 3.64843C13.3249 3.64843 13.1052 3.73711 12.9281 3.91449C12.751 4.09188 12.6625 4.31167 12.6625 4.57387C12.6625 4.83608 12.7512 5.05573 12.9286 5.23282C13.1059 5.40989 13.3257 5.49843 13.5879 5.49843ZM13.5879 16.1484C13.8502 16.1484 14.0698 16.0598 14.2469 15.8824C14.424 15.705 14.5125 15.4852 14.5125 15.223C14.5125 14.9608 14.4238 14.7411 14.2464 14.5641C14.0691 14.387 13.8493 14.2984 13.5871 14.2984C13.3249 14.2984 13.1052 14.3871 12.9281 14.5645C12.751 14.7419 12.6625 14.9617 12.6625 15.2239C12.6625 15.4861 12.7512 15.7057 12.9286 15.8828C13.1059 16.0599 13.3257 16.1484 13.5879 16.1484ZM4.37499 18.1484C3.37917 18.1484 2.52604 17.7932 1.81562 17.0828C1.10521 16.3724 0.75 15.5193 0.75 14.5234C0.75 13.5276 1.10521 12.6745 1.81562 11.9641C2.52604 11.2537 3.37917 10.8985 4.37499 10.8985C5.37083 10.8985 6.22396 11.2537 6.93437 11.9641C7.64478 12.6745 7.99999 13.5276 7.99999 14.5234C7.99999 15.5193 7.64478 16.3724 6.93437 17.0828C6.22396 17.7932 5.37083 18.1484 4.37499 18.1484ZM2.25624 9.8672C2.27708 9.28803 2.49688 8.78594 2.91563 8.36094C3.33438 7.93594 3.8375 7.72344 4.425 7.72344C4.7125 7.72344 4.9875 7.77864 5.25 7.88906C5.5125 7.99948 5.75 8.15677 5.9625 8.36094L11.5125 5.16093C11.4792 5.07701 11.4542 4.98259 11.4375 4.87768C11.4208 4.77276 11.4125 4.67135 11.4125 4.57344C11.4125 3.96928 11.624 3.45573 12.0469 3.03281C12.4698 2.60989 12.9833 2.39844 13.5875 2.39844C14.1917 2.39844 14.7052 2.60989 15.1281 3.03281C15.551 3.45573 15.7625 3.96928 15.7625 4.57344C15.7625 5.1776 15.551 5.69114 15.1281 6.11405C14.7052 6.53698 14.1917 6.74844 13.5875 6.74844C13.2971 6.74844 13.0192 6.69948 12.7541 6.60155C12.4889 6.50364 12.2583 6.3526 12.0625 6.14844L6.51249 9.27344C6.54166 9.38177 6.56145 9.48698 6.57188 9.58906C6.58229 9.69115 6.58541 9.79636 6.58125 9.9047C6.24375 9.7422 5.89166 9.6172 5.52499 9.5297C5.15832 9.4422 4.77499 9.39845 4.37499 9.39845C3.99818 9.39845 3.63314 9.44011 3.27988 9.52344C2.92663 9.60678 2.58542 9.72136 2.25624 9.8672ZM13.5875 17.3984C12.9833 17.3984 12.4698 17.1866 12.0469 16.7629C11.624 16.3391 11.4125 15.8246 11.4125 15.2193C11.4125 15.1346 11.4208 15.0364 11.4375 14.9248C11.4542 14.8132 11.4792 14.7127 11.5125 14.6234L9.35623 13.3734C9.28123 13.0609 9.18019 12.763 9.05312 12.4797C8.92603 12.1964 8.77707 11.9234 8.60623 11.6609L12.0625 13.636C12.2583 13.4568 12.4833 13.3141 12.7375 13.2078C12.9917 13.1016 13.275 13.0484 13.5875 13.0484C14.1917 13.0484 14.7052 13.2599 15.1281 13.6828C15.551 14.1057 15.7625 14.6193 15.7625 15.2234C15.7625 15.8276 15.551 16.3411 15.1281 16.7641C14.7052 17.187 14.1917 17.3984 13.5875 17.3984ZM4.37499 15.0109L5.6625 16.3047L6.13125 15.8422L4.82499 14.536L6.15624 13.2047L5.69374 12.7422L4.37499 14.0609L3.05625 12.7422L2.59374 13.2047L3.91251 14.5234L2.59374 15.8422L3.06876 16.3172L4.37499 15.0109Z" fill="#BCC4C8"/>
    </g>
    <defs>
        <clipPath id="clip0_5144_30664">
            <rect width="18" height="18" fill="white" transform="translate(0 0.898438)"/>
        </clipPath>
    </defs>
</svg>