<svg width="18" height="20" viewBox="0 0 18 20" fill="none" xmlns="http://www.w3.org/2000/svg">
<path d="M17.1004 14.1392V5.86076C17.0997 5.73613 17.066 5.61387 17.0026 5.50632C16.9392 5.39877 16.8485 5.30974 16.7394 5.24819L9.34376 1.09145C9.23936 1.03154 9.12094 1 9.00039 1C8.87984 1 8.76142 1.03154 8.65702 1.09145L1.26137 5.24819C1.15233 5.30974 1.06154 5.39877 0.998165 5.50632C0.934789 5.61387 0.901064 5.73613 0.900391 5.86076V14.1392C0.901064 14.2639 0.934789 14.3861 0.998165 14.4937C1.06154 14.6012 1.15233 14.6903 1.26137 14.7518L8.65702 18.9086C8.76142 18.9685 8.87984 19 9.00039 19C9.12094 19 9.23936 18.9685 9.34376 18.9086L16.7394 14.7518C16.8485 14.6903 16.9392 14.6012 17.0026 14.4937C17.066 14.3861 17.0997 14.2639 17.1004 14.1392Z" stroke="#1E95FE" stroke-width="1.5" stroke-linecap="round" stroke-linejoin="round"/>
<path d="M9.00039 13.6C10.9886 13.6 12.6004 11.9882 12.6004 10C12.6004 8.0118 10.9886 6.40002 9.00039 6.40002C7.01217 6.40002 5.40039 8.0118 5.40039 10C5.40039 11.9882 7.01217 13.6 9.00039 13.6Z" stroke="#1E95FE" stroke-width="1.5" stroke-linecap="round" stroke-linejoin="round"/>
</svg>
