<svg width="18" height="14" viewBox="0 0 18 14" fill="none" xmlns="http://www.w3.org/2000/svg">
    <path d="M1.60994 13.4077C1.25285 13.4077 0.937579 13.271 0.664118 12.9975C0.390643 12.724 0.253906 12.4088 0.253906 12.0517V1.74568C0.253906 1.3886 0.390643 1.07332 0.664118 0.79986C0.937579 0.526385 1.25285 0.389648 1.60994 0.389648H7.04771L8.40377 1.74568H15.1705C15.5275 1.74568 15.8428 1.88242 16.1163 2.1559C16.3898 2.42936 16.5265 2.74464 16.5265 3.10174H7.82743L6.4714 1.74568H1.60994V12.0517L3.64401 4.45777H17.7469L15.5976 12.3975C15.5072 12.732 15.3411 12.9839 15.0992 13.1535C14.8574 13.323 14.5647 13.4077 14.2212 13.4077H1.60994ZM3.03379 12.0517H14.289L15.9163 5.81381H4.66105L3.03379 12.0517Z" fill="#BCC4C8"/>
</svg>