<svg width="16" height="16" viewBox="0 0 16 16" fill="none" xmlns="http://www.w3.org/2000/svg">
    <path d="M12.9239 15.7566L7.21438 10.0028C6.87506 10.1208 6.53573 10.2167 6.1964 10.2905C5.85708 10.3642 5.51037 10.4011 5.15629 10.4011C3.72399 10.4011 2.50653 9.90195 1.50391 8.90364C0.501304 7.90534 0 6.6931 0 5.26694C0 4.80959 0.060179 4.36413 0.180537 3.93056C0.300895 3.49697 0.469392 3.08674 0.68603 2.69986L3.89488 5.90871L5.93084 4.00553L2.63347 0.70816C3.0158 0.484529 3.4212 0.310595 3.84967 0.186357C4.27815 0.0621191 4.71369 0 5.15629 0C6.61934 0 7.86292 0.512066 8.88704 1.5362C9.91117 2.56032 10.4232 3.8039 10.4232 5.26694C10.4232 5.62102 10.3864 5.96773 10.3126 6.30705C10.2388 6.64638 10.1429 6.98571 10.0249 7.32503L15.7566 13.0346C15.9189 13.1962 16 13.3916 16 13.6205C16 13.8495 15.9189 14.0452 15.7566 14.2075L14.0747 15.7566C13.9169 15.9189 13.7262 16 13.5027 16C13.2791 16 13.0862 15.9189 12.9239 15.7566ZM13.5436 14.4952L14.4288 13.61L8.38728 7.56846C8.62333 7.25864 8.80037 6.8935 8.9184 6.47303C9.03642 6.05256 9.09544 5.65053 9.09544 5.26694C9.09544 4.16044 8.68603 3.22361 7.86722 2.45643C7.04841 1.68926 6.11526 1.29829 5.06777 1.28354L7.3029 3.56293C7.43568 3.69571 7.50207 3.858 7.50207 4.04979C7.50207 4.24159 7.43568 4.40387 7.3029 4.53665L4.38174 7.28077C4.24896 7.41355 4.08668 7.47994 3.89488 7.47994C3.70309 7.47994 3.5408 7.41355 3.40802 7.28077L1.26141 5.15629C1.30567 6.2923 1.70894 7.22914 2.47121 7.9668C3.23349 8.70447 4.12852 9.07331 5.15629 9.07331C5.52513 9.07331 5.91609 9.01429 6.32918 8.89627C6.74228 8.77824 7.10373 8.6012 7.41355 8.36515L13.5436 14.4952Z" fill="#1E95FE"/>
</svg>
