<svg width="18" height="19" viewBox="0 0 18 19" fill="none" xmlns="http://www.w3.org/2000/svg">
    <path d="M13.5875 17.3984C12.9833 17.3984 12.4698 17.1866 12.0469 16.7629C11.624 16.3391 11.4125 15.8246 11.4125 15.2193C11.4125 15.1346 11.4208 15.0364 11.4375 14.9248C11.4542 14.8132 11.4792 14.7127 11.5125 14.6234L5.9625 11.3984C5.76666 11.6026 5.53333 11.7661 5.26251 11.8891C4.99167 12.012 4.7125 12.0734 4.425 12.0734C3.82084 12.0734 3.30729 11.862 2.88437 11.4391C2.46146 11.0161 2.25 10.5026 2.25 9.89844C2.25 9.29428 2.46146 8.78073 2.88437 8.35781C3.30729 7.93489 3.82084 7.72344 4.425 7.72344C4.7125 7.72344 4.9875 7.77864 5.25 7.88906C5.5125 7.99948 5.75 8.15677 5.9625 8.36094L11.5125 5.16093C11.4792 5.07701 11.4542 4.98259 11.4375 4.87768C11.4208 4.77276 11.4125 4.67135 11.4125 4.57344C11.4125 3.96928 11.624 3.45573 12.0469 3.03281C12.4698 2.60989 12.9833 2.39844 13.5875 2.39844C14.1917 2.39844 14.7052 2.60989 15.1281 3.03281C15.551 3.45573 15.7625 3.96928 15.7625 4.57344C15.7625 5.1776 15.551 5.69114 15.1281 6.11405C14.7052 6.53698 14.1917 6.74844 13.5875 6.74844C13.2971 6.74844 13.0192 6.69948 12.7541 6.60155C12.4889 6.50364 12.2583 6.3526 12.0625 6.14844L6.51249 9.27344C6.53749 9.36511 6.55832 9.47031 6.57499 9.58906C6.59166 9.70781 6.6 9.81194 6.6 9.90146C6.6 9.99097 6.59166 10.0837 6.57499 10.1796C6.55832 10.2755 6.53749 10.3693 6.51249 10.4609L12.0625 13.636C12.2583 13.4568 12.4833 13.3141 12.7375 13.2078C12.9917 13.1016 13.275 13.0484 13.5875 13.0484C14.1917 13.0484 14.7052 13.2599 15.1281 13.6828C15.551 14.1057 15.7625 14.6193 15.7625 15.2234C15.7625 15.8276 15.551 16.3411 15.1281 16.7641C14.7052 17.187 14.1917 17.3984 13.5875 17.3984ZM13.5879 5.49843C13.8502 5.49843 14.0698 5.40974 14.2469 5.23237C14.424 5.05499 14.5125 4.83521 14.5125 4.57301C14.5125 4.31079 14.4238 4.09114 14.2464 3.91406C14.0691 3.73697 13.8493 3.64843 13.5871 3.64843C13.3249 3.64843 13.1052 3.73711 12.9281 3.91449C12.751 4.09188 12.6625 4.31167 12.6625 4.57387C12.6625 4.83608 12.7512 5.05573 12.9286 5.23282C13.1059 5.40989 13.3257 5.49843 13.5879 5.49843ZM4.42543 10.8235C4.68764 10.8235 4.90729 10.7348 5.08438 10.5574C5.26146 10.38 5.34999 10.1602 5.34999 9.89801C5.34999 9.63579 5.26131 9.41614 5.08393 9.23906C4.90656 9.06197 4.68676 8.97343 4.42455 8.97343C4.16235 8.97343 3.94271 9.06212 3.76562 9.23951C3.58853 9.41688 3.49999 9.63667 3.49999 9.89887C3.49999 10.1611 3.58868 10.3807 3.76605 10.5578C3.94344 10.7349 4.16323 10.8235 4.42543 10.8235ZM13.5879 16.1484C13.8502 16.1484 14.0698 16.0598 14.2469 15.8824C14.424 15.705 14.5125 15.4852 14.5125 15.223C14.5125 14.9608 14.4238 14.7411 14.2464 14.5641C14.0691 14.387 13.8493 14.2984 13.5871 14.2984C13.3249 14.2984 13.1052 14.3871 12.9281 14.5645C12.751 14.7419 12.6625 14.9617 12.6625 15.2239C12.6625 15.4861 12.7512 15.7057 12.9286 15.8828C13.1059 16.0599 13.3257 16.1484 13.5879 16.1484Z" fill="#BCC4C8"/>
</svg>