<svg width="18" height="19" viewBox="0 0 18 19" fill="none" xmlns="http://www.w3.org/2000/svg">
<path d="M9 12.875C10.864 12.875 12.375 11.364 12.375 9.5C12.375 7.63604 10.864 6.125 9 6.125C7.13604 6.125 5.625 7.63604 5.625 9.5C5.625 11.364 7.13604 12.875 9 12.875Z" stroke="#1E95FE" stroke-width="1.2" stroke-linecap="round" stroke-linejoin="round"/>
<path d="M13.8799 6.17344C14.0491 6.41579 14.1973 6.67219 14.3228 6.93984L16.1439 7.95234C16.3713 8.9708 16.3737 10.0266 16.151 11.0461L14.3228 12.0586C14.1973 12.3262 14.0491 12.5827 13.8799 12.825L13.915 14.9133C13.1432 15.6166 12.2298 16.1464 11.2361 16.4672L9.44314 15.3914C9.14821 15.4125 8.85214 15.4125 8.5572 15.3914L6.77127 16.4602C5.77445 16.1452 4.85799 15.6174 4.08533 14.9133L4.12049 12.832C3.95263 12.5863 3.80451 12.3277 3.67752 12.0586L1.85642 11.0461C1.62903 10.0276 1.62663 8.97182 1.84939 7.95234L3.67752 6.93984C3.80301 6.67219 3.95121 6.41579 4.12049 6.17344L4.08533 4.08516C4.85711 3.38187 5.77057 2.85202 6.76424 2.53125L8.5572 3.60703C8.85214 3.58593 9.14821 3.58593 9.44314 3.60703L11.2291 2.53828C12.2259 2.85321 13.1424 3.38101 13.915 4.08516L13.8799 6.17344Z" stroke="#1E95FE" stroke-width="1.2" stroke-linecap="round" stroke-linejoin="round"/>
</svg>
