<svg width="19" height="19" viewBox="0 0 19 19" fill="none" xmlns="http://www.w3.org/2000/svg">
<path d="M9.47656 11C9.26406 11 9.08594 10.9281 8.94219 10.7844C8.79844 10.6406 8.72656 10.4625 8.72656 10.25C8.72656 10.0375 8.79844 9.85938 8.94219 9.71563C9.08594 9.57188 9.26406 9.5 9.47656 9.5C9.68906 9.5 9.86719 9.57188 10.0109 9.71563C10.1547 9.85938 10.2266 10.0375 10.2266 10.25C10.2266 10.4625 10.1547 10.6406 10.0109 10.7844C9.86719 10.9281 9.68906 11 9.47656 11ZM6.47656 11C6.26406 11 6.08594 10.9281 5.94219 10.7844C5.79844 10.6406 5.72656 10.4625 5.72656 10.25C5.72656 10.0375 5.79844 9.85938 5.94219 9.71563C6.08594 9.57188 6.26406 9.5 6.47656 9.5C6.68906 9.5 6.86719 9.57188 7.01094 9.71563C7.15469 9.85938 7.22656 10.0375 7.22656 10.25C7.22656 10.4625 7.15469 10.6406 7.01094 10.7844C6.86719 10.9281 6.68906 11 6.47656 11ZM12.4766 11C12.2641 11 12.0859 10.9281 11.9422 10.7844C11.7984 10.6406 11.7266 10.4625 11.7266 10.25C11.7266 10.0375 11.7984 9.85938 11.9422 9.71563C12.0859 9.57188 12.2641 9.5 12.4766 9.5C12.6891 9.5 12.8672 9.57188 13.0109 9.71563C13.1547 9.85938 13.2266 10.0375 13.2266 10.25C13.2266 10.4625 13.1547 10.6406 13.0109 10.7844C12.8672 10.9281 12.6891 11 12.4766 11ZM9.47656 14C9.26406 14 9.08594 13.9281 8.94219 13.7844C8.79844 13.6406 8.72656 13.4625 8.72656 13.25C8.72656 13.0375 8.79844 12.8594 8.94219 12.7156C9.08594 12.5719 9.26406 12.5 9.47656 12.5C9.68906 12.5 9.86719 12.5719 10.0109 12.7156C10.1547 12.8594 10.2266 13.0375 10.2266 13.25C10.2266 13.4625 10.1547 13.6406 10.0109 13.7844C9.86719 13.9281 9.68906 14 9.47656 14ZM6.47656 14C6.26406 14 6.08594 13.9281 5.94219 13.7844C5.79844 13.6406 5.72656 13.4625 5.72656 13.25C5.72656 13.0375 5.79844 12.8594 5.94219 12.7156C6.08594 12.5719 6.26406 12.5 6.47656 12.5C6.68906 12.5 6.86719 12.5719 7.01094 12.7156C7.15469 12.8594 7.22656 13.0375 7.22656 13.25C7.22656 13.4625 7.15469 13.6406 7.01094 13.7844C6.86719 13.9281 6.68906 14 6.47656 14ZM12.4766 14C12.2641 14 12.0859 13.9281 11.9422 13.7844C11.7984 13.6406 11.7266 13.4625 11.7266 13.25C11.7266 13.0375 11.7984 12.8594 11.9422 12.7156C12.0859 12.5719 12.2641 12.5 12.4766 12.5C12.6891 12.5 12.8672 12.5719 13.0109 12.7156C13.1547 12.8594 13.2266 13.0375 13.2266 13.25C13.2266 13.4625 13.1547 13.6406 13.0109 13.7844C12.8672 13.9281 12.6891 14 12.4766 14ZM3.85156 17C3.55156 17 3.28906 16.8875 3.06406 16.6625C2.83906 16.4375 2.72656 16.175 2.72656 15.875V4.25C2.72656 3.95 2.83906 3.6875 3.06406 3.4625C3.28906 3.2375 3.55156 3.125 3.85156 3.125H5.07031V2.6C5.07031 2.425 5.12656 2.28125 5.23906 2.16875C5.35156 2.05625 5.49531 2 5.67031 2C5.84531 2 5.99219 2.05625 6.11094 2.16875C6.22969 2.28125 6.28906 2.425 6.28906 2.6V3.125H12.6641V2.6C12.6641 2.425 12.7203 2.28125 12.8328 2.16875C12.9453 2.05625 13.0891 2 13.2641 2C13.4391 2 13.5859 2.05625 13.7047 2.16875C13.8234 2.28125 13.8828 2.425 13.8828 2.6V3.125H15.1016C15.4016 3.125 15.6641 3.2375 15.8891 3.4625C16.1141 3.6875 16.2266 3.95 16.2266 4.25V15.875C16.2266 16.175 16.1141 16.4375 15.8891 16.6625C15.6641 16.8875 15.4016 17 15.1016 17H3.85156ZM3.85156 15.875H15.1016V7.8125H3.85156V15.875ZM3.85156 6.6875H15.1016V4.25H3.85156V6.6875Z" fill="#1E95FE"/>
</svg>
