<svg width="18" height="18" viewBox="0 0 18 18" fill="none" xmlns="http://www.w3.org/2000/svg">
<path d="M6.42022 12.2917C5.90281 12.2917 5.46515 12.1083 5.10725 11.7413C4.74933 11.3744 4.57037 10.928 4.57037 10.4021C4.57037 9.87621 4.75088 9.43138 5.1119 9.0676C5.47292 8.70381 5.91214 8.52192 6.42955 8.52192C6.94695 8.52192 7.38461 8.70539 7.74253 9.07233C8.10045 9.43928 8.27941 9.88569 8.27941 10.4116C8.27941 10.9374 8.09889 11.3823 7.73785 11.7461C7.37683 12.1098 6.93762 12.2917 6.42022 12.2917ZM3.1878 17C2.86485 17 2.58615 16.8808 2.35169 16.6425C2.11723 16.4042 2 16.121 2 15.7927V3.67205C2 3.34382 2.11723 3.06055 2.35169 2.82224C2.58615 2.58394 2.86485 2.46479 3.1878 2.46479H4.70816V1H5.74548V2.46479H12.2862V1H13.2997V2.46479H14.8122C15.1351 2.46479 15.4139 2.58394 15.6483 2.82224C15.8828 3.06055 16 3.34382 16 3.67205V15.7927C16 16.121 15.8828 16.4042 15.6483 16.6425C15.4139 16.8808 15.1351 17 14.8122 17H3.1878ZM3.1878 16.0503H14.8122C14.8756 16.0503 14.9336 16.0235 14.9864 15.9698C15.0392 15.9162 15.0656 15.8571 15.0656 15.7927V7.47888H2.93438V15.7927C2.93438 15.8571 2.96077 15.9162 3.01356 15.9698C3.06636 16.0235 3.12444 16.0503 3.1878 16.0503ZM2.93438 6.52922H15.0656V3.67205C15.0656 3.60766 15.0392 3.54863 14.9864 3.49496C14.9336 3.44131 14.8756 3.41448 14.8122 3.41448H3.1878C3.12444 3.41448 3.06636 3.44131 3.01356 3.49496C2.96077 3.54863 2.93438 3.60766 2.93438 3.67205V6.52922Z" fill="#1E95FE"/>
</svg>
