<svg width="18" height="18" viewBox="0 0 18 18" fill="none" xmlns="http://www.w3.org/2000/svg">
<path d="M9 12.6562C10.5533 12.6562 11.8125 11.3971 11.8125 9.84375C11.8125 8.29045 10.5533 7.03125 9 7.03125C7.4467 7.03125 6.1875 8.29045 6.1875 9.84375C6.1875 11.3971 7.4467 12.6562 9 12.6562Z" stroke="#788A9C" stroke-width="1.2" stroke-linecap="round" stroke-linejoin="round"/>
<path d="M13.7812 8.15626C14.4364 8.15516 15.0827 8.30717 15.6687 8.60015C16.2546 8.89314 16.764 9.31899 17.1562 9.84376" stroke="#788A9C" stroke-width="1.2" stroke-linecap="round" stroke-linejoin="round"/>
<path d="M0.84375 9.84376C1.23595 9.31899 1.74535 8.89314 2.33132 8.60015C2.91729 8.30717 3.56362 8.15516 4.21875 8.15626" stroke="#788A9C" stroke-width="1.2" stroke-linecap="round" stroke-linejoin="round"/>
<path d="M4.95117 15.1877C5.32159 14.429 5.89764 13.7897 6.61367 13.3425C7.32971 12.8953 8.15696 12.6582 9.00117 12.6582C9.84539 12.6582 10.6726 12.8953 11.3887 13.3425C12.1047 13.7897 12.6807 14.429 13.0512 15.1877" stroke="#788A9C" stroke-width="1.2" stroke-linecap="round" stroke-linejoin="round"/>
<path d="M4.21908 8.15625C3.79203 8.15668 3.37368 8.03557 3.0129 7.80708C2.65213 7.57858 2.36383 7.25213 2.1817 6.86586C1.99956 6.4796 1.93111 6.04948 1.98435 5.62577C2.03758 5.20205 2.2103 4.80223 2.48233 4.47303C2.75435 4.14383 3.11445 3.89884 3.52053 3.76669C3.92662 3.63454 4.36193 3.62069 4.7756 3.72675C5.18927 3.83281 5.56421 4.0544 5.85662 4.36564C6.14903 4.67687 6.34682 5.0649 6.42689 5.48437" stroke="#788A9C" stroke-width="1.2" stroke-linecap="round" stroke-linejoin="round"/>
<path d="M11.5723 5.48437C11.6523 5.0649 11.8501 4.67687 12.1425 4.36564C12.4349 4.0544 12.8099 3.83281 13.2236 3.72675C13.6372 3.62069 14.0725 3.63454 14.4786 3.76669C14.8847 3.89884 15.2448 4.14383 15.5168 4.47303C15.7889 4.80223 15.9616 5.20205 16.0148 5.62577C16.068 6.04948 15.9996 6.4796 15.8175 6.86586C15.6353 7.25213 15.347 7.57858 14.9863 7.80708C14.6255 8.03557 14.2071 8.15668 13.7801 8.15625" stroke="#788A9C" stroke-width="1.2" stroke-linecap="round" stroke-linejoin="round"/>
</svg>
