<svg width="24" height="24" viewBox="0 0 24 24" fill="none" xmlns="http://www.w3.org/2000/svg">
    <path d="M22.1896 17.6251L13.949 3.37506C13.7517 3.03234 13.4676 2.74767 13.1253 2.54972C12.7829 2.35178 12.3945 2.24756 11.999 2.24756C11.6036 2.24756 11.2151 2.35178 10.8728 2.54972C10.5304 2.74767 10.2463 3.03234 10.049 3.37506L1.80838 17.6251C1.6082 17.966 1.50181 18.3539 1.50002 18.7493C1.49824 19.1447 1.60112 19.5336 1.79821 19.8763C1.99531 20.2191 2.27961 20.5036 2.62223 20.701C2.96486 20.8984 3.35361 21.0015 3.74901 21.0001H20.249C20.6444 21.0015 21.0332 20.8984 21.3758 20.701C21.7184 20.5036 22.0027 20.2191 22.1998 19.8763C22.3969 19.5336 22.4998 19.1447 22.498 18.7493C22.4962 18.3539 22.3898 17.966 22.1896 17.6251ZM11.249 9.75006C11.249 9.55115 11.328 9.36038 11.4687 9.21973C11.6093 9.07908 11.8001 9.00006 11.999 9.00006C12.1979 9.00006 12.3887 9.07908 12.5293 9.21973C12.67 9.36038 12.749 9.55115 12.749 9.75006V13.5001C12.749 13.699 12.67 13.8897 12.5293 14.0304C12.3887 14.171 12.1979 14.2501 11.999 14.2501C11.8001 14.2501 11.6093 14.171 11.4687 14.0304C11.328 13.8897 11.249 13.699 11.249 13.5001V9.75006ZM11.999 18.0001C11.7765 18.0001 11.559 17.9341 11.374 17.8105C11.189 17.6868 11.0448 17.5111 10.9596 17.3056C10.8745 17.1 10.8522 16.8738 10.8956 16.6556C10.939 16.4374 11.0462 16.2369 11.2035 16.0796C11.3608 15.9222 11.5613 15.8151 11.7795 15.7717C11.9978 15.7283 12.224 15.7505 12.4295 15.8357C12.6351 15.9208 12.8108 16.065 12.9344 16.25C13.058 16.4351 13.124 16.6526 13.124 16.8751C13.124 17.1734 13.0055 17.4596 12.7945 17.6706C12.5835 17.8815 12.2974 18.0001 11.999 18.0001Z" fill="#F4BC0B"/>
</svg>