<svg width="18" height="16" viewBox="0 0 18 16" fill="none" xmlns="http://www.w3.org/2000/svg">
    <path d="M17.7356 13.1204L10.6716 0.962007C10.5025 0.669591 10.2589 0.426702 9.96545 0.257813C9.67199 0.0889242 9.33899 0 9 0C8.66101 0 8.32801 0.0889242 8.03455 0.257813C7.74109 0.426702 7.49753 0.669591 7.32841 0.962007L0.264353 13.1204C0.092749 13.4113 0.0015508 13.7423 1.96042e-05 14.0796C-0.00151159 14.417 0.0866789 14.7487 0.255635 15.0412C0.424592 15.3337 0.668297 15.5764 0.962003 15.7448C1.25571 15.9132 1.58896 16.0012 1.9279 16H16.0721C16.411 16.0012 16.7443 15.9132 17.038 15.7448C17.3317 15.5764 17.5754 15.3337 17.7444 15.0412C17.9133 14.7487 18.0015 14.417 18 14.0796C17.9984 13.7423 17.9073 13.4113 17.7356 13.1204ZM8.35708 6.40128C8.35708 6.23156 8.42482 6.0688 8.54539 5.94879C8.66596 5.82878 8.82949 5.76136 9 5.76136C9.17051 5.76136 9.33404 5.82878 9.45461 5.94879C9.57518 6.0688 9.64292 6.23156 9.64292 6.40128V9.60085C9.64292 9.77056 9.57518 9.93333 9.45461 10.0533C9.33404 10.1733 9.17051 10.2408 9 10.2408C8.82949 10.2408 8.66596 10.1733 8.54539 10.0533C8.42482 9.93333 8.35708 9.77056 8.35708 9.60085V6.40128ZM9 13.4403C8.80926 13.4403 8.62281 13.384 8.46422 13.2786C8.30563 13.1731 8.18202 13.0232 8.10903 12.8478C8.03604 12.6724 8.01694 12.4794 8.05415 12.2932C8.09136 12.107 8.18321 11.936 8.31808 11.8017C8.45295 11.6675 8.62479 11.5761 8.81186 11.539C8.99893 11.502 9.19283 11.521 9.36905 11.5937C9.54527 11.6663 9.69588 11.7893 9.80185 11.9472C9.90782 12.105 9.96438 12.2906 9.96438 12.4805C9.96438 12.735 9.86277 12.9792 9.68192 13.1592C9.50106 13.3392 9.25577 13.4403 9 13.4403Z" fill="#F4BC0B"/>
</svg>
