<svg width="16" height="16" viewBox="0 0 16 16" fill="none" xmlns="http://www.w3.org/2000/svg">
    <path fill-rule="evenodd" clip-rule="evenodd" d="M16 8C16 12.4183 12.4183 16 8 16C3.58172 16 0 12.4183 0 8C0 3.58172 3.58172 0 8 0C12.4183 0 16 3.58172 16 8ZM11.1781 5.65862L8.83678 7.99995L11.1794 10.3413C11.2362 10.3959 11.2816 10.4613 11.3128 10.5337C11.344 10.606 11.3604 10.6839 11.3612 10.7627C11.362 10.8415 11.347 10.9196 11.3172 10.9926C11.2874 11.0655 11.2434 11.1318 11.1876 11.1875C11.1319 11.2432 11.0657 11.2872 10.9927 11.317C10.9198 11.3469 10.8416 11.3618 10.7628 11.361C10.684 11.3603 10.6062 11.3438 10.5338 11.3126C10.4615 11.2814 10.3961 11.2361 10.3414 11.1793L8.00011 8.83795L5.65878 11.1793C5.60415 11.2361 5.53875 11.2814 5.4664 11.3126C5.39405 11.3438 5.3162 11.3603 5.2374 11.361C5.15861 11.3618 5.08046 11.3469 5.00751 11.317C4.93457 11.2872 4.8683 11.2432 4.81258 11.1875C4.75687 11.1318 4.71282 11.0655 4.68302 10.9926C4.65322 10.9196 4.63826 10.8415 4.63903 10.7627C4.63979 10.6839 4.65625 10.606 4.68746 10.5337C4.71867 10.4613 4.764 10.3959 4.82078 10.3413L7.16212 7.99995L4.82078 5.65862C4.764 5.60399 4.71867 5.53859 4.68746 5.46623C4.65625 5.39388 4.63979 5.31603 4.63903 5.23724C4.63826 5.15845 4.65322 5.0803 4.68302 5.00735C4.71282 4.93441 4.75687 4.86814 4.81258 4.81242C4.8683 4.7567 4.93457 4.71266 5.00751 4.68286C5.08046 4.65306 5.15861 4.6381 5.2374 4.63886C5.3162 4.63963 5.39405 4.65609 5.4664 4.6873C5.53875 4.71851 5.60415 4.76383 5.65878 4.82062L8.00011 7.16195L10.3414 4.82062C10.4526 4.70967 10.6032 4.64741 10.7603 4.64753C10.838 4.6476 10.915 4.66297 10.9868 4.69279C11.0586 4.7226 11.1238 4.76626 11.1788 4.82129C11.2897 4.93241 11.352 5.08306 11.3519 5.24009C11.3517 5.39712 11.2892 5.54767 11.1781 5.65862Z" fill="#EB5757"/>
</svg>
