<svg width="24" height="24" viewBox="0 0 24 24" fill="none" xmlns="http://www.w3.org/2000/svg">
<path fill-rule="evenodd" clip-rule="evenodd" d="M21 11.5C21 16.7467 16.7467 21 11.5 21C6.25329 21 2 16.7467 2 11.5C2 6.25329 6.25329 2 11.5 2C16.7467 2 21 6.25329 21 11.5ZM15.274 8.71961L12.4937 11.4999L15.2756 14.2803C15.343 14.3451 15.3969 14.4228 15.4339 14.5087C15.471 14.5946 15.4905 14.6871 15.4914 14.7807C15.4923 14.8742 15.4746 14.967 15.4392 15.0537C15.4038 15.1403 15.3515 15.219 15.2853 15.2851C15.2192 15.3513 15.1405 15.4036 15.0539 15.439C14.9672 15.4744 14.8744 15.4921 14.7809 15.4912C14.6873 15.4903 14.5948 15.4708 14.5089 15.4337C14.423 15.3967 14.3453 15.3428 14.2805 15.2754L11.5001 12.4951L8.7198 15.2754C8.65493 15.3428 8.57727 15.3967 8.49135 15.4337C8.40543 15.4708 8.31298 15.4903 8.21942 15.4912C8.12585 15.4921 8.03304 15.4744 7.94642 15.439C7.8598 15.4036 7.78111 15.3513 7.71494 15.2851C7.64878 15.219 7.59648 15.1403 7.56109 15.0537C7.5257 14.967 7.50794 14.8742 7.50884 14.7807C7.50975 14.6871 7.5293 14.5946 7.56636 14.5087C7.60342 14.4228 7.65725 14.3451 7.72468 14.2803L10.505 11.4999L7.72468 8.71961C7.65725 8.65474 7.60342 8.57707 7.56636 8.49115C7.5293 8.40523 7.50975 8.31279 7.50884 8.21922C7.50794 8.12566 7.5257 8.03285 7.56109 7.94623C7.59648 7.85961 7.64878 7.78091 7.71494 7.71475C7.78111 7.64859 7.8598 7.59628 7.94642 7.56089C8.03304 7.52551 8.12585 7.50774 8.21942 7.50865C8.31298 7.50956 8.40543 7.52911 8.49135 7.56617C8.57727 7.60323 8.65493 7.65705 8.7198 7.72449L11.5001 10.5048L14.2805 7.72449C14.4124 7.59273 14.5913 7.5188 14.7778 7.51895C14.8701 7.51902 14.9615 7.53728 15.0468 7.57268C15.1321 7.60809 15.2096 7.65994 15.2748 7.72528C15.4066 7.85724 15.4805 8.03613 15.4803 8.22261C15.4802 8.40908 15.406 8.58786 15.274 8.71961Z" fill="#EB5757"/>
</svg>
