<svg width="1202" height="229" viewBox="0 0 1202 229" fill="none" xmlns="http://www.w3.org/2000/svg">
<g style="mix-blend-mode:multiply">
<path d="M26 2L26 228" stroke="#E9F4FB" stroke-linecap="square"/>
<path d="M51 2L51 228" stroke="#E9F4FB" stroke-linecap="square"/>
<path d="M1 2L0.99999 228" stroke="#E9F4FB" stroke-linecap="square"/>
<path d="M426 2V228" stroke="#E9F4FB" stroke-linecap="square"/>
<path d="M501 2V228" stroke="#E9F4FB" stroke-linecap="square"/>
<path d="M826 2V228" stroke="#E9F4FB" stroke-linecap="square"/>
<path d="M901 2V228" stroke="#E9F4FB" stroke-linecap="square"/>
<path d="M226 2V228" stroke="#E9F4FB" stroke-linecap="square"/>
<path d="M301 2V228" stroke="#E9F4FB" stroke-linecap="square"/>
<path d="M626 2V228" stroke="#E9F4FB" stroke-linecap="square"/>
<path d="M701 2V228" stroke="#E9F4FB" stroke-linecap="square"/>
<path d="M1026 2V228" stroke="#E9F4FB" stroke-linecap="square"/>
<path d="M1101 2V228" stroke="#E9F4FB" stroke-linecap="square"/>
<path d="M126 2V228" stroke="#E9F4FB" stroke-linecap="square"/>
<path d="M201 2V228" stroke="#E9F4FB" stroke-linecap="square"/>
<path d="M526 2V228" stroke="#E9F4FB" stroke-linecap="square"/>
<path d="M601 2V228" stroke="#E9F4FB" stroke-linecap="square"/>
<path d="M926 2V228" stroke="#E9F4FB" stroke-linecap="square"/>
<path d="M1001 2V228" stroke="#E9F4FB" stroke-linecap="square"/>
<path d="M326 2V228" stroke="#E9F4FB" stroke-linecap="square"/>
<path d="M401 2V228" stroke="#E9F4FB" stroke-linecap="square"/>
<path d="M726 2V228" stroke="#E9F4FB" stroke-linecap="square"/>
<path d="M801 2V228" stroke="#E9F4FB" stroke-linecap="square"/>
<path d="M1126 2V228" stroke="#E9F4FB" stroke-linecap="square"/>
<path d="M76 2V228" stroke="#E9F4FB" stroke-linecap="square"/>
<path d="M101 2V228" stroke="#E9F4FB" stroke-linecap="square"/>
<path d="M151 2V228" stroke="#E9F4FB" stroke-linecap="square"/>
<path d="M476 2V228" stroke="#E9F4FB" stroke-linecap="square"/>
<path d="M551 2V228" stroke="#E9F4FB" stroke-linecap="square"/>
<path d="M876 2V228" stroke="#E9F4FB" stroke-linecap="square"/>
<path d="M951 2V228" stroke="#E9F4FB" stroke-linecap="square"/>
<path d="M276 2V228" stroke="#E9F4FB" stroke-linecap="square"/>
<path d="M351 2V228" stroke="#E9F4FB" stroke-linecap="square"/>
<path d="M676 2V228" stroke="#E9F4FB" stroke-linecap="square"/>
<path d="M751 2V228" stroke="#E9F4FB" stroke-linecap="square"/>
<path d="M1076 2V228" stroke="#E9F4FB" stroke-linecap="square"/>
<path d="M1151 2V228" stroke="#E9F4FB" stroke-linecap="square"/>
<path d="M176 2V228" stroke="#E9F4FB" stroke-linecap="square"/>
<path d="M251 2V228" stroke="#E9F4FB" stroke-linecap="square"/>
<path d="M576 2V228" stroke="#E9F4FB" stroke-linecap="square"/>
<path d="M651 2V228" stroke="#E9F4FB" stroke-linecap="square"/>
<path d="M976 2V228" stroke="#E9F4FB" stroke-linecap="square"/>
<path d="M1051 2V228" stroke="#E9F4FB" stroke-linecap="square"/>
<path d="M376 2V228" stroke="#E9F4FB" stroke-linecap="square"/>
<path d="M451 2V228" stroke="#E9F4FB" stroke-linecap="square"/>
<path d="M776 2V228" stroke="#E9F4FB" stroke-linecap="square"/>
<path d="M851 2V228" stroke="#E9F4FB" stroke-linecap="square"/>
<path d="M1176 2V228" stroke="#E9F4FB" stroke-linecap="square"/>
<path d="M1 228H1200" stroke="#E9F4FB" stroke-linecap="square"/>
<path d="M1 203H1200" stroke="#E9F4FB" stroke-linecap="square"/>
<path d="M1 178H1200" stroke="#E9F4FB" stroke-linecap="square"/>
<path d="M1 153H1200" stroke="#E9F4FB" stroke-linecap="square"/>
<path d="M1 128H1200" stroke="#E9F4FB" stroke-linecap="square"/>
<path d="M2 103H1201" stroke="#E9F4FB" stroke-linecap="square"/>
<path d="M2 78H1201" stroke="#E9F4FB" stroke-linecap="square"/>
<path d="M2 53H1201" stroke="#E9F4FB" stroke-linecap="square"/>
<path d="M1 1H1201" stroke="#E9F4FB" stroke-linecap="square"/>
<path d="M1 28H1200" stroke="#E9F4FB" stroke-linecap="square"/>
</g>
</svg>
