<svg width="86" height="87" viewBox="0 0 86 87" fill="none" xmlns="http://www.w3.org/2000/svg">
<path d="M22.2981 66.8074C23.3863 66.8074 24.3219 66.416 25.1048 65.633C25.8877 64.85 26.2792 63.9145 26.2792 62.8263C26.2792 61.7381 25.8877 60.8026 25.1048 60.0197C24.3219 59.2367 23.3863 58.8453 22.2981 58.8453C21.21 58.8453 20.2744 59.2367 19.4914 60.0197C18.7085 60.8026 18.317 61.7381 18.317 62.8263C18.317 63.9145 18.7085 64.85 19.4914 65.633C20.2744 66.416 21.21 66.8074 22.2981 66.8074ZM22.2981 47.3795C23.3863 47.3795 24.3219 46.9881 25.1048 46.2051C25.8877 45.4222 26.2792 44.4866 26.2792 43.3984C26.2792 42.3102 25.8877 41.3747 25.1048 40.5917C24.3219 39.8088 23.3863 39.4174 22.2981 39.4174C21.21 39.4174 20.2744 39.8088 19.4914 40.5917C18.7085 41.3747 18.317 42.3102 18.317 43.3984C18.317 44.4866 18.7085 45.4222 19.4914 46.2051C20.2744 46.9881 21.21 47.3795 22.2981 47.3795ZM22.2981 27.9516C23.3863 27.9516 24.3219 27.5602 25.1048 26.7772C25.8877 25.9943 26.2792 25.0587 26.2792 23.9705C26.2792 22.8824 25.8877 21.9469 25.1048 21.1638C24.3219 20.3809 23.3863 19.9895 22.2981 19.9895C21.21 19.9895 20.2744 20.3809 19.4914 21.1638C18.7085 21.9469 18.317 22.8824 18.317 23.9705C18.317 25.0587 18.7085 25.9943 19.4914 26.7772C20.2744 27.5602 21.21 27.9516 22.2981 27.9516ZM37.5857 66.8074H66.5682V58.8453H37.5857V66.8074ZM37.5857 47.3795H66.5682V39.4174H37.5857V47.3795ZM37.5857 27.9516H66.5682V19.9895H37.5857V27.9516ZM7.96607 86.3945C5.81626 86.3945 3.95178 85.605 2.37263 84.0258C0.793481 82.4467 0.00390625 80.5822 0.00390625 78.4324V8.36451C0.00390625 6.2147 0.793481 4.35022 2.37263 2.77107C3.95178 1.19192 5.81626 0.402344 7.96607 0.402344H78.0339C80.1837 0.402344 82.0482 1.19192 83.6274 2.77107C85.2065 4.35022 85.9961 6.2147 85.9961 8.36451V78.4324C85.9961 80.5822 85.2065 82.4467 83.6274 84.0258C82.0482 85.605 80.1837 86.3945 78.0339 86.3945H7.96607ZM7.96607 78.4324H78.0339V8.36451H7.96607V78.4324Z" fill="#BCC4C8" fill-opacity="0.25"/>
</svg>
