<svg width="18" height="19" viewBox="0 0 18 19" fill="none" xmlns="http://www.w3.org/2000/svg">
<path d="M9 11.6504C9.77665 11.6504 10.4062 11.0208 10.4062 10.2441C10.4062 9.46749 9.77665 8.83789 9 8.83789C8.22335 8.83789 7.59375 9.46749 7.59375 10.2441C7.59375 11.0208 8.22335 11.6504 9 11.6504Z" stroke="#788A9C" stroke-width="1.2" stroke-linecap="round" stroke-linejoin="round"/>
<path d="M9 11.6504V13.3379" stroke="#788A9C" stroke-width="1.2" stroke-linecap="round" stroke-linejoin="round"/>
<path d="M14.625 6.58789H3.375C3.06434 6.58789 2.8125 6.83973 2.8125 7.15039V15.0254C2.8125 15.3361 3.06434 15.5879 3.375 15.5879H14.625C14.9357 15.5879 15.1875 15.3361 15.1875 15.0254V7.15039C15.1875 6.83973 14.9357 6.58789 14.625 6.58789Z" stroke="#788A9C" stroke-width="1.2" stroke-linecap="round" stroke-linejoin="round"/>
<path d="M6.46875 6.58789V4.05664C6.46875 3.38531 6.73543 2.74148 7.21014 2.26678C7.68484 1.79208 8.32867 1.52539 9 1.52539C9.67133 1.52539 10.3152 1.79208 10.7899 2.26678C11.2646 2.74148 11.5312 3.38531 11.5312 4.05664" stroke="#788A9C" stroke-width="1.2" stroke-linecap="round" stroke-linejoin="round"/>
</svg>
