<svg width="18" height="19" viewBox="0 0 18 19" fill="none" xmlns="http://www.w3.org/2000/svg">
<path d="M5.03437 10.9248L2.25 13.1748V4.1748C2.25 4.02562 2.30926 3.88255 2.41475 3.77706C2.52024 3.67157 2.66332 3.6123 2.8125 3.6123H11.8125C11.9617 3.6123 12.1048 3.67157 12.2102 3.77706C12.3157 3.88255 12.375 4.02562 12.375 4.1748V10.3623C12.375 10.5115 12.3157 10.6546 12.2102 10.7601C12.1048 10.8655 11.9617 10.9248 11.8125 10.9248H5.03437Z" stroke="currentColor" stroke-width="1.2" stroke-linecap="round" stroke-linejoin="round"/>
<path d="M5.625 10.9248V13.7373C5.625 13.8865 5.68426 14.0296 5.78975 14.1351C5.89524 14.2405 6.03832 14.2998 6.1875 14.2998H12.9656L15.75 16.5498V7.5498C15.75 7.40062 15.6907 7.25755 15.5852 7.15206C15.4798 7.04657 15.3367 6.9873 15.1875 6.9873H12.375" stroke="currentColor" stroke-width="1.2" stroke-linecap="round" stroke-linejoin="round"/>
</svg>
