<svg width="18" height="19" viewBox="0 0 18 19" fill="none" xmlns="http://www.w3.org/2000/svg">
<path d="M2.8125 4.90039V13.9004C2.8125 14.1988 2.93103 14.4849 3.142 14.6959C3.35298 14.9069 3.63913 15.0254 3.9375 15.0254H15.1875C15.3367 15.0254 15.4798 14.9661 15.5852 14.8606C15.6907 14.7551 15.75 14.6121 15.75 14.4629V6.58789C15.75 6.43871 15.6907 6.29563 15.5852 6.19014C15.4798 6.08465 15.3367 6.02539 15.1875 6.02539H3.9375C3.63913 6.02539 3.35298 5.90686 3.142 5.69589C2.93103 5.48491 2.8125 5.19876 2.8125 4.90039ZM2.8125 4.90039C2.8125 4.60202 2.93103 4.31587 3.142 4.1049C3.35298 3.89392 3.63913 3.77539 3.9375 3.77539H13.5" stroke="currentColor" stroke-width="1.2" stroke-linecap="round" stroke-linejoin="round"/>
<path d="M12.6562 11.3691C13.1222 11.3691 13.5 10.9914 13.5 10.5254C13.5 10.0594 13.1222 9.68164 12.6562 9.68164C12.1903 9.68164 11.8125 10.0594 11.8125 10.5254C11.8125 10.9914 12.1903 11.3691 12.6562 11.3691Z" fill="currentColor"/>
</svg>
