<svg width="18" height="19" viewBox="0 0 18 19" fill="none" xmlns="http://www.w3.org/2000/svg">
<path d="M4.5 11.8506C5.74264 11.8506 6.75 10.8432 6.75 9.60059C6.75 8.35795 5.74264 7.35059 4.5 7.35059C3.25736 7.35059 2.25 8.35795 2.25 9.60059C2.25 10.8432 3.25736 11.8506 4.5 11.8506Z" stroke="#788A9C" stroke-width="1.2" stroke-linecap="round" stroke-linejoin="round"/>
<path d="M12.375 16.9131C13.6176 16.9131 14.625 15.9057 14.625 14.6631C14.625 13.4204 13.6176 12.4131 12.375 12.4131C11.1324 12.4131 10.125 13.4204 10.125 14.6631C10.125 15.9057 11.1324 16.9131 12.375 16.9131Z" stroke="#788A9C" stroke-width="1.2" stroke-linecap="round" stroke-linejoin="round"/>
<path d="M12.375 6.78809C13.6176 6.78809 14.625 5.78073 14.625 4.53809C14.625 3.29545 13.6176 2.28809 12.375 2.28809C11.1324 2.28809 10.125 3.29545 10.125 4.53809C10.125 5.78073 11.1324 6.78809 12.375 6.78809Z" stroke="#788A9C" stroke-width="1.2" stroke-linecap="round" stroke-linejoin="round"/>
<path d="M10.4838 5.75488L6.3916 8.38457" stroke="#788A9C" stroke-width="1.2" stroke-linecap="round" stroke-linejoin="round"/>
<path d="M6.3916 10.8174L10.4838 13.4471" stroke="#788A9C" stroke-width="1.2" stroke-linecap="round" stroke-linejoin="round"/>
</svg>
