<svg width="18" height="19" viewBox="0 0 18 19" fill="none" xmlns="http://www.w3.org/2000/svg">
<path d="M4.16898 3.41309H13.8299C13.9415 3.41327 14.0504 3.44661 14.143 3.50888C14.2355 3.57114 14.3075 3.65951 14.3497 3.76275C14.3919 3.866 14.4024 3.97946 14.38 4.08872C14.3576 4.19798 14.3031 4.2981 14.2237 4.37637L8.99945 9.60059L3.77523 4.37637C3.69576 4.2981 3.64135 4.19798 3.61892 4.08872C3.59648 3.97946 3.60704 3.866 3.64924 3.76275C3.69144 3.65951 3.76339 3.57114 3.85593 3.50888C3.94848 3.44661 4.05744 3.41327 4.16898 3.41309Z" stroke="currentColor" stroke-width="1.2" stroke-linecap="round" stroke-linejoin="round"/>
<path d="M4.16898 15.7881H13.8299C13.9415 15.7879 14.0504 15.7546 14.143 15.6923C14.2355 15.63 14.3075 15.5417 14.3497 15.4384C14.3919 15.3352 14.4024 15.2217 14.38 15.1125C14.3576 15.0032 14.3031 14.9031 14.2237 14.8248L8.99945 9.60059L3.77523 14.8248C3.69576 14.9031 3.64135 15.0032 3.61892 15.1125C3.59648 15.2217 3.60704 15.3352 3.64924 15.4384C3.69144 15.5417 3.76339 15.63 3.85593 15.6923C3.94848 15.7546 4.05744 15.7879 4.16898 15.7881Z" stroke="currentColor" stroke-width="1.2" stroke-linecap="round" stroke-linejoin="round"/>
<path d="M5.0625 5.66309H12.9375" stroke="currentColor" stroke-width="1.2" stroke-linecap="round" stroke-linejoin="round"/>
</svg>
