<svg width="18" height="19" viewBox="0 0 18 19" fill="none" xmlns="http://www.w3.org/2000/svg">
<path d="M4.16898 3.0127H13.8299C13.9415 3.01288 14.0504 3.04622 14.143 3.10849C14.2355 3.17075 14.3075 3.25912 14.3497 3.36236C14.3919 3.46561 14.4024 3.57907 14.38 3.68833C14.3576 3.79759 14.3031 3.89771 14.2237 3.97598L8.99945 9.2002L3.77523 3.97598C3.69576 3.89771 3.64135 3.79759 3.61892 3.68833C3.59648 3.57907 3.60704 3.46561 3.64924 3.36236C3.69144 3.25912 3.76339 3.17075 3.85593 3.10849C3.94848 3.04622 4.05744 3.01288 4.16898 3.0127Z" stroke="currentColor" stroke-width="1.2" stroke-linecap="round" stroke-linejoin="round"/>
<path d="M4.16898 15.3877H13.8299C13.9415 15.3875 14.0504 15.3542 14.143 15.2919C14.2355 15.2296 14.3075 15.1413 14.3497 15.038C14.3919 14.9348 14.4024 14.8213 14.38 14.7121C14.3576 14.6028 14.3031 14.5027 14.2237 14.4244L8.99945 9.2002L3.77523 14.4244C3.69576 14.5027 3.64135 14.6028 3.61892 14.7121C3.59648 14.8213 3.60704 14.9348 3.64924 15.038C3.69144 15.1413 3.76339 15.2296 3.85593 15.2919C3.94848 15.3542 4.05744 15.3875 4.16898 15.3877Z" stroke="currentColor" stroke-width="1.2" stroke-linecap="round" stroke-linejoin="round"/>
<path d="M12.375 12.5752H5.625" stroke="currentColor" stroke-width="1.2" stroke-linecap="round" stroke-linejoin="round"/>
</svg>
