<svg width="19" height="18" viewBox="0 0 19 18" fill="none" xmlns="http://www.w3.org/2000/svg">
<g clip-path="url(#clip0_4086_148069)">
<mask id="mask0_4086_148069" style="mask-type:luminance" maskUnits="userSpaceOnUse" x="0" y="0" width="19" height="18">
<path d="M19 0H0V18H19V0Z" fill="white"/>
</mask>
<g mask="url(#mask0_4086_148069)">
<path d="M8.5 17C7.31 17 6.19792 16.7769 5.16375 16.3306C4.12958 15.8844 3.23 15.2788 2.465 14.5138C1.7 13.7488 1.09792 12.8456 0.65875 11.8044C0.219583 10.7631 0 9.6475 0 8.4575C0 7.2675 0.219583 6.15896 0.65875 5.13188C1.09792 4.10479 1.7 3.20875 2.465 2.44375C3.23 1.67875 4.12958 1.08021 5.16375 0.648125C6.19792 0.216042 7.31 0 8.5 0C9.69 0 10.8021 0.216042 11.8363 0.648125C12.8704 1.08021 13.77 1.67875 14.535 2.44375C15.3 3.20875 15.9021 4.10479 16.3413 5.13188C16.7804 6.15896 17 7.2675 17 8.4575C17 9.6475 16.7804 10.7631 16.3413 11.8044C15.9021 12.8456 15.3 13.7488 14.535 14.5138C13.77 15.2788 12.8704 15.8844 11.8363 16.3306C10.8021 16.7769 9.69 17 8.5 17ZM8.5 15.7675C8.99583 15.2575 9.41021 14.6731 9.74313 14.0144C10.076 13.3556 10.3488 12.5729 10.5613 11.6663H6.46C6.65833 12.5163 6.92396 13.2813 7.25688 13.9613C7.58979 14.6413 8.00417 15.2433 8.5 15.7675ZM6.69375 15.5125C6.33958 14.9742 6.035 14.3933 5.78 13.77C5.525 13.1467 5.3125 12.4454 5.1425 11.6663H1.955C2.49333 12.6721 3.11667 13.4619 3.825 14.0356C4.53333 14.6094 5.48958 15.1017 6.69375 15.5125ZM10.3275 15.4913C11.3475 15.1654 12.2648 14.6767 13.0794 14.025C13.894 13.3733 14.5492 12.5871 15.045 11.6663H11.8788C11.6946 12.4313 11.4785 13.1254 11.2306 13.7488C10.9827 14.3721 10.6817 14.9529 10.3275 15.4913ZM1.53 10.3913H4.90875C4.86625 10.0088 4.84146 9.66521 4.83438 9.36063C4.82729 9.05604 4.82375 8.755 4.82375 8.4575C4.82375 8.10333 4.83083 7.78813 4.845 7.51188C4.85917 7.23563 4.8875 6.9275 4.93 6.5875H1.53C1.43083 6.9275 1.36354 7.23208 1.32813 7.50125C1.29271 7.77042 1.275 8.08917 1.275 8.4575C1.275 8.82583 1.29271 9.15521 1.32813 9.44563C1.36354 9.73604 1.43083 10.0513 1.53 10.3913ZM6.22625 10.3913H10.795C10.8517 9.95208 10.8871 9.59438 10.9013 9.31813C10.9154 9.04188 10.9225 8.755 10.9225 8.4575C10.9225 8.17417 10.9154 7.90146 10.9013 7.63938C10.8871 7.37729 10.8517 7.02667 10.795 6.5875H6.22625C6.16958 7.02667 6.13417 7.37729 6.12 7.63938C6.10583 7.90146 6.09875 8.17417 6.09875 8.4575C6.09875 8.755 6.10583 9.04188 6.12 9.31813C6.13417 9.59438 6.16958 9.95208 6.22625 10.3913ZM12.07 10.3913H15.47C15.5692 10.0513 15.6365 9.73604 15.6719 9.44563C15.7073 9.15521 15.725 8.82583 15.725 8.4575C15.725 8.08917 15.7073 7.77042 15.6719 7.50125C15.6365 7.23208 15.5692 6.9275 15.47 6.5875H12.0913C12.1338 7.08333 12.1621 7.46229 12.1763 7.72438C12.1904 7.98646 12.1975 8.23083 12.1975 8.4575C12.1975 8.76917 12.1869 9.06313 12.1656 9.33938C12.1444 9.61563 12.1125 9.96625 12.07 10.3913ZM11.8575 5.3125H15.045C14.5775 4.335 13.9365 3.52042 13.1219 2.86875C12.3073 2.21708 11.3688 1.75667 10.3063 1.4875C10.6604 2.01167 10.9615 2.57833 11.2094 3.1875C11.4573 3.79667 11.6733 4.505 11.8575 5.3125ZM6.46 5.3125H10.5825C10.4267 4.56167 10.1646 3.83563 9.79625 3.13438C9.42792 2.43313 8.99583 1.81333 8.5 1.275C8.04667 1.6575 7.66417 2.16042 7.3525 2.78375C7.04083 3.40708 6.74333 4.25 6.46 5.3125ZM1.955 5.3125H5.16375C5.31958 4.5475 5.51792 3.86396 5.75875 3.26188C5.99958 2.65979 6.30417 2.07542 6.6725 1.50875C5.61 1.77792 4.68208 2.23125 3.88875 2.86875C3.09542 3.50625 2.45083 4.32083 1.955 5.3125Z" fill="currentColor"/>
<path d="M17.875 9.5453V9.54375V7.875C17.875 7.54348 17.7433 7.22554 17.5089 6.99112C17.2745 6.7567 16.9565 6.625 16.625 6.625H11.375C11.0435 6.625 10.7255 6.7567 10.4911 6.99112C10.2567 7.22554 10.125 7.54348 10.125 7.875V9.5625V9.56405C10.1256 9.75752 10.1709 9.94823 10.2575 10.1213C10.344 10.2943 10.4693 10.445 10.6238 10.5616L10.6251 10.5626L12.5429 12L10.6251 13.4374L10.6238 13.4384C10.4693 13.555 10.344 13.7057 10.2575 13.8787C10.1709 14.0518 10.1256 14.2425 10.125 14.4359V14.4375V16.125C10.125 16.4565 10.2567 16.7745 10.4911 17.0089C10.7255 17.2433 11.0435 17.375 11.375 17.375H16.625C16.9565 17.375 17.2745 17.2433 17.5089 17.0089C17.7433 16.7745 17.875 16.4565 17.875 16.125V14.4562V14.4547C17.8744 14.2612 17.8291 14.0705 17.7425 13.8975C17.6561 13.7246 17.5309 13.574 17.3766 13.4575L15.4517 12L17.3762 10.5428C17.5305 10.4263 17.6561 10.2755 17.7425 10.1025C17.8291 9.92948 17.8744 9.73877 17.875 9.5453Z" fill="currentColor" stroke="white"/>
<path d="M11 9.5V7.5H17V9.5L14 12L11 9.5Z" fill="white"/>
<path d="M11.5 14L14 12L16.5 14V15.5H11.5V14Z" fill="white"/>
<path d="M17.3752 9.54375V7.875C17.3752 7.67609 17.2962 7.48532 17.1555 7.34467C17.0149 7.20402 16.8241 7.125 16.6252 7.125H11.3752C11.1763 7.125 10.9855 7.20402 10.8448 7.34467C10.7042 7.48532 10.6252 7.67609 10.6252 7.875V9.5625C10.6255 9.67887 10.6528 9.79358 10.7048 9.89766C10.7569 10.0017 10.8323 10.0924 10.9252 10.1625L13.3767 12L10.9252 13.8375C10.8374 13.9025 10.7653 13.9864 10.7142 14.0829C10.6631 14.1794 10.6343 14.2862 10.6299 14.3953C10.626 14.409 10.6244 14.4233 10.6252 14.4375V16.125C10.6252 16.3239 10.7042 16.5147 10.8448 16.6553C10.9855 16.796 11.1763 16.875 11.3752 16.875H16.6252C16.8241 16.875 17.0149 16.796 17.1555 16.6553C17.2962 16.5147 17.3752 16.3239 17.3752 16.125V14.4562C17.3759 14.442 17.3743 14.4278 17.3705 14.4141C17.366 14.3049 17.3372 14.1982 17.2861 14.1017C17.235 14.0051 17.1629 13.9213 17.0752 13.8563L14.6236 12L17.0752 10.1438C17.1681 10.0736 17.2435 9.983 17.2955 9.87891C17.3475 9.77483 17.3748 9.66012 17.3752 9.54375ZM11.8721 14.0672L14.0002 12.4688L16.1236 14.0766L11.8721 14.0672ZM16.6252 9.54375L14.0002 11.5312L11.3752 9.5625V7.875H16.6252V9.54375Z" fill="currentColor"/>
</g>
</g>
<defs>
<clipPath id="clip0_4086_148069">
<rect width="19" height="18" fill="white"/>
</clipPath>
</defs>
</svg>
