<svg width="18" height="19" viewBox="0 0 18 19" fill="none" xmlns="http://www.w3.org/2000/svg">
<path d="M12.9375 5.8252H2.8125C2.50184 5.8252 2.25 6.07704 2.25 6.3877V14.2627C2.25 14.5734 2.50184 14.8252 2.8125 14.8252H12.9375C13.2482 14.8252 13.5 14.5734 13.5 14.2627V6.3877C13.5 6.07704 13.2482 5.8252 12.9375 5.8252Z" stroke="currentColor" stroke-width="1.2" stroke-linecap="round" stroke-linejoin="round"/>
<path d="M4.5 5.8252V4.1377C4.5 3.98851 4.55926 3.84544 4.66475 3.73995C4.77024 3.63446 4.91332 3.5752 5.0625 3.5752H15.1875C15.3367 3.5752 15.4798 3.63446 15.5852 3.73995C15.6907 3.84544 15.75 3.98851 15.75 4.1377V12.0127C15.75 12.1619 15.6907 12.305 15.5852 12.4104C15.4798 12.5159 15.3367 12.5752 15.1875 12.5752H13.5" stroke="currentColor" stroke-width="1.2" stroke-linecap="round" stroke-linejoin="round"/>
<path d="M2.25 8.0752H13.5" stroke="currentColor" stroke-width="1.2" stroke-linecap="round" stroke-linejoin="round"/>
</svg>
