<svg width="18" height="14" viewBox="0 0 18 14" fill="none" xmlns="http://www.w3.org/2000/svg">
    <path d="M8.85 9.8875L9.6375 9.1L7.3125 6.77693V3.4375H6.1875V7.225L8.85 9.8875ZM13.6313 13.3V12.025C14.6188 11.5625 15.4063 10.8812 15.9938 9.98125C16.5813 9.08125 16.875 8.08437 16.875 6.99062C16.875 5.89687 16.5813 4.89687 15.9938 3.99062C15.4063 3.08437 14.6188 2.40625 13.6313 1.95625V0.681247C14.9313 1.20625 15.9844 2.03771 16.7906 3.17563C17.5969 4.31355 18 5.5823 18 6.98188C18 8.38146 17.6 9.65312 16.8 10.7969C16 11.9406 14.9438 12.775 13.6313 13.3ZM6.75 13.7312C5.8125 13.7312 4.93438 13.5531 4.11563 13.1969C3.29688 12.8406 2.58438 12.3594 1.97813 11.7531C1.37188 11.1469 0.890625 10.4344 0.534375 9.61562C0.178125 8.79687 0 7.91875 0 6.98125C0 6.04375 0.178125 5.16562 0.534375 4.34687C0.890625 3.52812 1.37188 2.81562 1.97813 2.20937C2.58438 1.60312 3.29688 1.12187 4.11563 0.765622C4.93438 0.409372 5.8125 0.231247 6.75 0.231247C7.6875 0.231247 8.56563 0.409372 9.38438 0.765622C10.2031 1.12187 10.9156 1.60312 11.5219 2.20937C12.1281 2.81562 12.6094 3.52812 12.9656 4.34687C13.3219 5.16562 13.5 6.04375 13.5 6.98125C13.5 7.91875 13.3219 8.79687 12.9656 9.61562C12.6094 10.4344 12.1281 11.1469 11.5219 11.7531C10.9156 12.3594 10.2031 12.8406 9.38438 13.1969C8.56563 13.5531 7.6875 13.7312 6.75 13.7312ZM6.75 12.6062C8.3 12.6062 9.625 12.0605 10.725 10.969C11.825 9.87745 12.375 8.54821 12.375 6.98125C12.375 5.43125 11.825 4.10625 10.725 3.00625C9.625 1.90625 8.3 1.35625 6.75 1.35625C5.18304 1.35625 3.85379 1.90625 2.76227 3.00625C1.67076 4.10625 1.125 5.43125 1.125 6.98125C1.125 8.54821 1.67076 9.87745 2.76227 10.969C3.85379 12.0605 5.18304 12.6062 6.75 12.6062Z" fill="currentColor"/>
</svg>
