<svg width="20" height="20" viewBox="0 0 20 20" fill="none" xmlns="http://www.w3.org/2000/svg">
    <path d="M8.5 17C7.31 17 6.19792 16.7769 5.16375 16.3306C4.12958 15.8844 3.23 15.2788 2.465 14.5138C1.7 13.7487 1.09792 12.8456 0.65875 11.8044C0.219583 10.7631 0 9.6475 0 8.4575C0 7.2675 0.219583 6.15896 0.65875 5.13188C1.09792 4.10479 1.7 3.20875 2.465 2.44375C3.23 1.67875 4.12958 1.08021 5.16375 0.648125C6.19792 0.216042 7.31 0 8.5 0C9.69 0 10.8021 0.216042 11.8363 0.648125C12.8704 1.08021 13.77 1.67875 14.535 2.44375C15.3 3.20875 15.9021 4.10479 16.3412 5.13188C16.7804 6.15896 17 7.2675 17 8.4575C17 9.6475 16.7804 10.7631 16.3412 11.8044C15.9021 12.8456 15.3 13.7487 14.535 14.5138C13.77 15.2788 12.8704 15.8844 11.8363 16.3306C10.8021 16.7769 9.69 17 8.5 17ZM8.5 15.7675C8.99583 15.2575 9.41021 14.6731 9.74312 14.0144C10.076 13.3556 10.3488 12.5729 10.5612 11.6663H6.46C6.65833 12.5162 6.92396 13.2812 7.25688 13.9613C7.58979 14.6413 8.00417 15.2433 8.5 15.7675ZM6.69375 15.5125C6.33958 14.9742 6.035 14.3933 5.78 13.77C5.525 13.1467 5.3125 12.4454 5.1425 11.6663H1.955C2.49333 12.6721 3.11667 13.4619 3.825 14.0356C4.53333 14.6094 5.48958 15.1017 6.69375 15.5125ZM10.3275 15.4913C11.3475 15.1654 12.2648 14.6767 13.0794 14.025C13.894 13.3733 14.5492 12.5871 15.045 11.6663H11.8787C11.6946 12.4313 11.4785 13.1254 11.2306 13.7487C10.9827 14.3721 10.6817 14.9529 10.3275 15.4913ZM1.53 10.3912H4.90875C4.86625 10.0087 4.84146 9.66521 4.83437 9.36063C4.82729 9.05604 4.82375 8.755 4.82375 8.4575C4.82375 8.10333 4.83083 7.78813 4.845 7.51188C4.85917 7.23563 4.8875 6.9275 4.93 6.5875H1.53C1.43083 6.9275 1.36354 7.23208 1.32812 7.50125C1.29271 7.77042 1.275 8.08917 1.275 8.4575C1.275 8.82583 1.29271 9.15521 1.32812 9.44563C1.36354 9.73604 1.43083 10.0513 1.53 10.3912ZM6.22625 10.3912H10.795C10.8517 9.95208 10.8871 9.59437 10.9012 9.31812C10.9154 9.04187 10.9225 8.755 10.9225 8.4575C10.9225 8.17417 10.9154 7.90146 10.9012 7.63938C10.8871 7.37729 10.8517 7.02667 10.795 6.5875H6.22625C6.16958 7.02667 6.13417 7.37729 6.12 7.63938C6.10583 7.90146 6.09875 8.17417 6.09875 8.4575C6.09875 8.755 6.10583 9.04187 6.12 9.31812C6.13417 9.59437 6.16958 9.95208 6.22625 10.3912ZM12.07 10.3912H15.47C15.5692 10.0513 15.6365 9.73604 15.6719 9.44563C15.7073 9.15521 15.725 8.82583 15.725 8.4575C15.725 8.08917 15.7073 7.77042 15.6719 7.50125C15.6365 7.23208 15.5692 6.9275 15.47 6.5875H12.0913C12.1337 7.08333 12.1621 7.46229 12.1763 7.72438C12.1904 7.98646 12.1975 8.23083 12.1975 8.4575C12.1975 8.76917 12.1869 9.06312 12.1656 9.33938C12.1444 9.61563 12.1125 9.96625 12.07 10.3912ZM11.8575 5.3125H15.045C14.5775 4.335 13.9365 3.52042 13.1219 2.86875C12.3073 2.21708 11.3688 1.75667 10.3063 1.4875C10.6604 2.01167 10.9615 2.57833 11.2094 3.1875C11.4573 3.79667 11.6733 4.505 11.8575 5.3125ZM6.46 5.3125H10.5825C10.4267 4.56167 10.1646 3.83562 9.79625 3.13438C9.42792 2.43313 8.99583 1.81333 8.5 1.275C8.04667 1.6575 7.66417 2.16042 7.3525 2.78375C7.04083 3.40708 6.74333 4.25 6.46 5.3125ZM1.955 5.3125H5.16375C5.31958 4.5475 5.51792 3.86396 5.75875 3.26188C5.99958 2.65979 6.30417 2.07542 6.6725 1.50875C5.61 1.77792 4.68208 2.23125 3.88875 2.86875C3.09542 3.50625 2.45083 4.32083 1.955 5.3125Z" fill="currentColor"/>
    <rect x="8" y="7.875" width="12" height="12" rx="6" fill="white"/>
    <path fill-rule="evenodd" clip-rule="evenodd" d="M14 18.1778V9.23276C13.8358 9.21462 13.669 9.2053 13.5 9.2053C11.0147 9.2053 9 11.22 9 13.7053C9 16.1906 11.0147 18.2053 13.5 18.2053C13.669 18.2053 13.8358 18.196 14 18.1778Z" fill="#1E95FE" fill-opacity="0.5"/>
    <path d="M13.834 18.375C16.3193 18.375 18.334 16.3603 18.334 13.875C18.334 11.3897 16.3193 9.375 13.834 9.375C11.3487 9.375 9.33398 11.3897 9.33398 13.875C9.33398 16.3603 11.3487 18.375 13.834 18.375Z" fill="#EFF0EF" stroke="currentColor" stroke-width="1.2" stroke-miterlimit="10"/>
    <path d="M14 11.25V13.875H16.625" stroke="currentColor" stroke-width="1.2" stroke-linecap="round" stroke-linejoin="round"/>
</svg>
