<svg width="18" height="19" viewBox="0 0 18 19" fill="none" xmlns="http://www.w3.org/2000/svg">
<path d="M9 6.4248V9.7998" stroke="currentColor" stroke-width="1.2" stroke-linecap="round" stroke-linejoin="round"/>
<path d="M11.925 11.4873L9 9.7998" stroke="currentColor" stroke-width="1.2" stroke-linecap="round" stroke-linejoin="round"/>
<path d="M12.9521 7.80957H15.7646V4.99707" stroke="currentColor" stroke-width="1.2" stroke-linecap="round" stroke-linejoin="round"/>
<path d="M13.3741 14.1732C12.5089 15.0391 11.4064 15.6289 10.206 15.868C9.00565 16.1072 7.76129 15.985 6.63038 15.5168C5.49947 15.0486 4.53282 14.2556 3.8527 13.2379C3.17259 12.2203 2.80957 11.0238 2.80957 9.79981C2.80957 8.57582 3.17259 7.37933 3.8527 6.36169C4.53282 5.34405 5.49947 4.55099 6.63038 4.08282C7.76129 3.61465 9.00565 3.49241 10.206 3.73157C11.4064 3.97072 12.5089 4.56053 13.3741 5.42637L15.7647 7.80996" stroke="currentColor" stroke-width="1.2" stroke-linecap="round" stroke-linejoin="round"/>
</svg>
