<svg width="16" height="12" viewBox="0 0 16 12" fill="none" xmlns="http://www.w3.org/2000/svg">
    <path d="M14.867 1.8979L5.86703 10.8979C5.81479 10.9502 5.75275 10.9917 5.68447 11.02C5.61618 11.0483 5.54298 11.0629 5.46906 11.0629C5.39514 11.0629 5.32195 11.0483 5.25366 11.02C5.18537 10.9917 5.12333 10.9502 5.07109 10.8979L1.13359 6.9604C1.02805 6.85485 0.96875 6.7117 0.96875 6.56243C0.96875 6.41316 1.02805 6.27001 1.13359 6.16446C1.23914 6.05891 1.3823 5.99962 1.53156 5.99962C1.68083 5.99962 1.82398 6.05891 1.92953 6.16446L5.46906 9.7047L14.0711 1.10196C14.1766 0.996414 14.3198 0.937119 14.4691 0.937119C14.6183 0.937119 14.7615 0.996414 14.867 1.10196C14.9726 1.20751 15.0319 1.35066 15.0319 1.49993C15.0319 1.6492 14.9726 1.79235 14.867 1.8979Z" fill="#1E95FE"/>
</svg>