<svg width="16" height="17" viewBox="0 0 16 17" fill="none" xmlns="http://www.w3.org/2000/svg">
<path d="M8 0.600098C6.41775 0.600098 4.87103 1.06929 3.55544 1.94834C2.23985 2.82739 1.21447 4.07682 0.608967 5.53863C0.00346628 7.00044 -0.15496 8.60897 0.153721 10.1608C0.462403 11.7127 1.22433 13.1381 2.34315 14.2569C3.46197 15.3758 4.88743 16.1377 6.43928 16.4464C7.99113 16.7551 9.59966 16.5966 11.0615 15.9911C12.5233 15.3856 13.7727 14.3602 14.6518 13.0447C15.5308 11.7291 16 10.1823 16 8.6001C15.9959 6.47961 15.1518 4.44714 13.6524 2.94773C12.153 1.44832 10.1205 0.604164 8 0.600098ZM11.8077 7.2001L7.3 11.5078C7.18347 11.6174 7.02922 11.678 6.86923 11.677C6.79103 11.6781 6.71338 11.6638 6.64077 11.6347C6.56815 11.6057 6.50201 11.5625 6.44616 11.5078L4.19231 9.35394C4.1298 9.2994 4.07896 9.23278 4.04285 9.15809C4.00673 9.0834 3.9861 9.00218 3.98218 8.91932C3.97826 8.83645 3.99113 8.75364 4.02003 8.67588C4.04893 8.59811 4.09325 8.52699 4.15034 8.46679C4.20742 8.40659 4.27609 8.35856 4.35221 8.32558C4.42833 8.29259 4.51034 8.27534 4.5933 8.27486C4.67626 8.27438 4.75846 8.29067 4.83496 8.32277C4.91146 8.35487 4.98068 8.4021 5.03846 8.46163L6.86923 10.2078L10.9615 6.30779C11.0812 6.20339 11.2366 6.1493 11.3952 6.1568C11.5538 6.1643 11.7034 6.23283 11.8126 6.34806C11.9219 6.46328 11.9824 6.61628 11.9815 6.77507C11.9806 6.93386 11.9183 7.08615 11.8077 7.2001Z" fill="#BCC4C8"/>
</svg>
