<svg width="8" height="6" viewBox="0 0 8 6" fill="none" xmlns="http://www.w3.org/2000/svg">
    <path d="M5.45065 3.6415C5.35621 3.6415 5.27704 3.60956 5.21315 3.54567C5.14926 3.48178 5.11732 3.40262 5.11732 3.30817C5.11732 3.21373 5.14926 3.13456 5.21315 3.07067C5.27704 3.00678 5.35621 2.97484 5.45065 2.97484C5.5451 2.97484 5.62426 3.00678 5.68815 3.07067C5.75204 3.13456 5.78398 3.21373 5.78398 3.30817C5.78398 3.40262 5.75204 3.48178 5.68815 3.54567C5.62426 3.60956 5.5451 3.6415 5.45065 3.6415ZM3.97565 3.6415C3.88121 3.6415 3.80204 3.60956 3.73815 3.54567C3.67426 3.48178 3.64232 3.40262 3.64232 3.30817C3.64232 3.21373 3.67426 3.13456 3.73815 3.07067C3.80204 3.00678 3.88121 2.97484 3.97565 2.97484C4.0701 2.97484 4.14926 3.00678 4.21315 3.07067C4.27704 3.13456 4.30898 3.21373 4.30898 3.30817C4.30898 3.40262 4.27704 3.48178 4.21315 3.54567C4.14926 3.60956 4.0701 3.6415 3.97565 3.6415ZM2.55898 3.6415C2.46454 3.6415 2.38537 3.60956 2.32148 3.54567C2.2576 3.48178 2.22565 3.40262 2.22565 3.30817C2.22565 3.21373 2.2576 3.13456 2.32148 3.07067C2.38537 3.00678 2.46454 2.97484 2.55898 2.97484C2.65343 2.97484 2.73259 3.00678 2.79648 3.07067C2.86037 3.13456 2.89232 3.21373 2.89232 3.30817C2.89232 3.40262 2.86037 3.48178 2.79648 3.54567C2.73259 3.60956 2.65343 3.6415 2.55898 3.6415ZM6.83398 5.99984C7.11013 5.99984 7.33398 5.77598 7.33398 5.49984V1.1665C7.33398 1.03873 7.28398 0.923448 7.18398 0.820671C7.08398 0.717893 6.96732 0.666504 6.83398 0.666504H1.16732C1.03954 0.666504 0.924262 0.717893 0.821484 0.820671C0.718706 0.923448 0.667317 1.03873 0.667317 1.1665V5.49984C0.667317 5.62761 0.718706 5.74289 0.821484 5.84567C0.924262 5.94845 1.03954 5.99984 1.16732 5.99984H6.00065H6.83398Z" fill="white"/>
</svg>
