<svg width="18" height="18" viewBox="0 0 18 18" fill="none" xmlns="http://www.w3.org/2000/svg">
    <path fill-rule="evenodd" clip-rule="evenodd" d="M9 15.4543V2.03665C8.75375 2.00943 8.50351 1.99545 8.25 1.99545C4.52208 1.99545 1.5 5.01753 1.5 8.74545C1.5 12.4734 4.52208 15.4955 8.25 15.4955C8.50351 15.4955 8.75375 15.4815 9 15.4543Z" fill="#788A9C" fill-opacity="0.5"/>
    <path d="M8.75 15.75C12.4779 15.75 15.5 12.7279 15.5 9C15.5 5.27208 12.4779 2.25 8.75 2.25C5.02208 2.25 2 5.27208 2 9C2 12.7279 5.02208 15.75 8.75 15.75Z" stroke="#788A9C" stroke-width="1.2" stroke-miterlimit="10"/>
    <path d="M9 9H12.9375" stroke="#788A9C" stroke-width="1.2" stroke-linecap="round" stroke-linejoin="round"/>
    <path d="M11.7844 11.7844L9 9" stroke="#788A9C" stroke-width="1.2" stroke-linecap="round" stroke-linejoin="round"/>
</svg>
