<svg width="18" height="18" viewBox="0 0 18 18" fill="none" xmlns="http://www.w3.org/2000/svg">
<path d="M6.52209 15.0346L2.21539 10.7279C2.10354 10.6145 2.01884 10.4881 1.96131 10.3488C1.90377 10.2095 1.875 10.0672 1.875 9.92177C1.875 9.76993 1.90377 9.6261 1.96131 9.49027C2.01884 9.35444 2.10354 9.22899 2.21539 9.11392L6.63846 4.6947L4.49327 2.57355L5.19229 1.8678L12.4314 9.12167C12.55 9.23638 12.6364 9.36179 12.6907 9.49789C12.7449 9.634 12.7721 9.77812 12.7721 9.93024C12.7721 10.076 12.7449 10.2183 12.6907 10.3571C12.6364 10.496 12.5497 10.622 12.4307 10.7351L8.13604 15.0346C8.02098 15.1464 7.89553 15.2311 7.75969 15.2887C7.62386 15.3462 7.48003 15.375 7.32819 15.375C7.18278 15.375 7.04043 15.3462 6.90114 15.2887C6.76186 15.2311 6.63551 15.1464 6.52209 15.0346ZM7.3269 5.38314L2.94613 9.76871C2.91728 9.79756 2.89805 9.82641 2.88844 9.85526C2.87881 9.88411 2.874 9.91296 2.874 9.94181H11.7846C11.7846 9.91296 11.7798 9.88411 11.7702 9.85526C11.7606 9.82641 11.7413 9.79756 11.7125 9.76871L7.3269 5.38314ZM14.7365 15.375C14.3535 15.375 14.0303 15.2401 13.7668 14.9705C13.5034 14.7009 13.3716 14.3719 13.3716 13.9836C13.3716 13.6826 13.4322 13.3967 13.5533 13.1261C13.6745 12.8555 13.8315 12.6025 14.0245 12.3673L14.7408 11.4567L15.4793 12.3673C15.6646 12.6025 15.8197 12.8555 15.9447 13.1261C16.0697 13.3967 16.1322 13.6826 16.1322 13.9836C16.1322 14.3751 15.9961 14.7049 15.724 14.9729C15.4519 15.2409 15.1227 15.375 14.7365 15.375Z" fill="#788A9C"/>
</svg>
