<svg width="18" height="18" viewBox="0 0 18 18" fill="none" xmlns="http://www.w3.org/2000/svg">
<path d="M9 5.625V9" stroke="#788A9C" stroke-width="1.2" stroke-linecap="round" stroke-linejoin="round"/>
<path d="M11.925 10.6875L9 9" stroke="#788A9C" stroke-width="1.2" stroke-linecap="round" stroke-linejoin="round"/>
<path d="M12.9512 7.01013H15.7637V4.19763" stroke="#788A9C" stroke-width="1.2" stroke-linecap="round" stroke-linejoin="round"/>
<path d="M13.3731 13.3734C12.508 14.2393 11.4055 14.8291 10.2051 15.0682C9.00468 15.3074 7.76032 15.1852 6.62941 14.717C5.49849 14.2488 4.53184 13.4558 3.85173 12.4381C3.17161 11.4205 2.80859 10.224 2.80859 9C2.80859 7.77602 3.17161 6.57953 3.85173 5.56189C4.53184 4.54425 5.49849 3.75118 6.62941 3.28302C7.76032 2.81485 9.00468 2.69261 10.2051 2.93176C11.4055 3.17092 12.508 3.76072 13.3731 4.62657L15.7637 7.01016" stroke="#788A9C" stroke-width="1.2" stroke-linecap="round" stroke-linejoin="round"/>
</svg>
