<svg width="18" height="18" viewBox="0 0 18 18" fill="none" xmlns="http://www.w3.org/2000/svg">
<path d="M14.625 10.125H3.375C3.06434 10.125 2.8125 10.3768 2.8125 10.6875V13.5C2.8125 13.8107 3.06434 14.0625 3.375 14.0625H14.625C14.9357 14.0625 15.1875 13.8107 15.1875 13.5V10.6875C15.1875 10.3768 14.9357 10.125 14.625 10.125Z" stroke="#788A9C" stroke-width="1.2" stroke-linecap="round" stroke-linejoin="round"/>
<path d="M14.625 3.9375H3.375C3.06434 3.9375 2.8125 4.18934 2.8125 4.5V7.3125C2.8125 7.62316 3.06434 7.875 3.375 7.875H14.625C14.9357 7.875 15.1875 7.62316 15.1875 7.3125V4.5C15.1875 4.18934 14.9357 3.9375 14.625 3.9375Z" stroke="#788A9C" stroke-width="1.2" stroke-linecap="round" stroke-linejoin="round"/>
</svg>
