<svg width="18" height="18" viewBox="0 0 18 18" fill="none" xmlns="http://www.w3.org/2000/svg">
<path d="M12.9375 5.625H2.8125C2.50184 5.625 2.25 5.87684 2.25 6.1875V14.0625C2.25 14.3732 2.50184 14.625 2.8125 14.625H12.9375C13.2482 14.625 13.5 14.3732 13.5 14.0625V6.1875C13.5 5.87684 13.2482 5.625 12.9375 5.625Z" stroke="#788A9C" stroke-width="1.2" stroke-linecap="round" stroke-linejoin="round"/>
<path d="M4.5 5.625V3.9375C4.5 3.78832 4.55926 3.64524 4.66475 3.53975C4.77024 3.43426 4.91332 3.375 5.0625 3.375H15.1875C15.3367 3.375 15.4798 3.43426 15.5852 3.53975C15.6907 3.64524 15.75 3.78832 15.75 3.9375V11.8125C15.75 11.9617 15.6907 12.1048 15.5852 12.2102C15.4798 12.3157 15.3367 12.375 15.1875 12.375H13.5" stroke="#788A9C" stroke-width="1.2" stroke-linecap="round" stroke-linejoin="round"/>
<path d="M2.25 7.875H13.5" stroke="#788A9C" stroke-width="1.2" stroke-linecap="round" stroke-linejoin="round"/>
</svg>
