<svg width="18" height="18" viewBox="0 0 18 18" fill="none" xmlns="http://www.w3.org/2000/svg">
    <path d="M9 7V8.8C9 8.91046 9.08954 9 9.2 9H11" stroke="#BCC4C8" stroke-linecap="round"/>
    <path d="M9 13C11.2091 13 13 11.2091 13 9C13 6.79086 11.2091 5 9 5C6.79086 5 5 6.79086 5 9C5 11.2091 6.79086 13 9 13Z" stroke="#BCC4C8" stroke-width="1.2" stroke-linecap="round" stroke-linejoin="round"/>
    <path d="M13.8794 5.67425C14.0486 5.91659 14.1968 6.173 14.3223 6.44065L16.1434 7.45315C16.3708 8.47161 16.3732 9.52742 16.1505 10.5469L14.3223 11.5594C14.1968 11.8271 14.0486 12.0835 13.8794 12.3258L13.9145 14.4141C13.1427 15.1174 12.2293 15.6472 11.2356 15.968L9.44265 14.8922C9.14772 14.9133 8.85165 14.9133 8.55672 14.8922L6.77078 15.961C5.77396 15.646 4.8575 15.1182 4.08484 14.4141L4.12 12.3328C3.95214 12.0871 3.80402 11.8285 3.67703 11.5594L1.85593 10.5469C1.62854 9.52844 1.62614 8.47263 1.8489 7.45315L3.67703 6.44065C3.80252 6.173 3.95072 5.91659 4.12 5.67425L4.08484 3.58596C4.85663 2.88267 5.77008 2.35282 6.76375 2.03206L8.55672 3.10784C8.85165 3.08674 9.14772 3.08674 9.44265 3.10784L11.2286 2.03909C12.2254 2.35402 13.1419 2.88182 13.9145 3.58596L13.8794 5.67425Z" stroke="#BCC4C8" stroke-width="1.2" stroke-linecap="round" stroke-linejoin="round"/>
</svg>
