<svg width="18" height="18" viewBox="0 0 18 18" fill="none" xmlns="http://www.w3.org/2000/svg">
<path d="M9 12.375C10.864 12.375 12.375 10.864 12.375 9C12.375 7.13604 10.864 5.625 9 5.625C7.13604 5.625 5.625 7.13604 5.625 9C5.625 10.864 7.13604 12.375 9 12.375Z" stroke="#1E95FE" stroke-width="1.2" stroke-linecap="round" stroke-linejoin="round"/>
<path d="M13.8803 5.67441C14.0496 5.91676 14.1978 6.17317 14.3233 6.44082L16.1444 7.45332C16.3718 8.47178 16.3742 9.52759 16.1514 10.5471L14.3233 11.5596C14.1978 11.8272 14.0496 12.0836 13.8803 12.326L13.9155 14.4143C13.1437 15.1175 12.2303 15.6474 11.2366 15.9682L9.44363 14.8924C9.14869 14.9135 8.85263 14.9135 8.55769 14.8924L6.77176 15.9611C5.77494 15.6462 4.85848 15.1184 4.08582 14.4143L4.12097 12.333C3.95312 12.0873 3.805 11.8287 3.67801 11.5596L1.85691 10.5471C1.62952 9.52861 1.62712 8.4728 1.84988 7.45332L3.67801 6.44082C3.8035 6.17317 3.9517 5.91676 4.12097 5.67441L4.08582 3.58613C4.8576 2.88284 5.77105 2.35299 6.76472 2.03223L8.55769 3.10801C8.85263 3.08691 9.14869 3.08691 9.44363 3.10801L11.2296 2.03926C12.2264 2.35418 13.1428 2.88199 13.9155 3.58613L13.8803 5.67441Z" stroke="#1E95FE" stroke-width="1.2" stroke-linecap="round" stroke-linejoin="round"/>
</svg>
