<svg width="18" height="19" viewBox="0 0 18 19" fill="none" xmlns="http://www.w3.org/2000/svg">
<path d="M1.125 15.8875H16.875" stroke="#788A9C" stroke-width="1.2" stroke-linecap="round" stroke-linejoin="round"/>
<path d="M10.125 15.8875V3.51245C10.125 3.36327 10.0657 3.22019 9.96025 3.1147C9.85476 3.00921 9.71168 2.94995 9.5625 2.94995H2.8125C2.66332 2.94995 2.52024 3.00921 2.41475 3.1147C2.30926 3.22019 2.25 3.36327 2.25 3.51245V15.8875" stroke="#788A9C" stroke-width="1.2" stroke-linecap="round" stroke-linejoin="round"/>
<path d="M15.75 15.8875V8.01245C15.75 7.86327 15.6907 7.72019 15.5852 7.6147C15.4798 7.50921 15.3367 7.44995 15.1875 7.44995H10.125" stroke="#788A9C" stroke-width="1.2" stroke-linecap="round" stroke-linejoin="round"/>
<path d="M4.5 5.76245H6.75" stroke="#788A9C" stroke-width="1.2" stroke-linecap="round" stroke-linejoin="round"/>
<path d="M5.625 10.2625H7.875" stroke="#788A9C" stroke-width="1.2" stroke-linecap="round" stroke-linejoin="round"/>
<path d="M4.5 13.075H6.75" stroke="#788A9C" stroke-width="1.2" stroke-linecap="round" stroke-linejoin="round"/>
<path d="M12.375 13.075H13.5" stroke="#788A9C" stroke-width="1.2" stroke-linecap="round" stroke-linejoin="round"/>
<path d="M12.375 10.2625H13.5" stroke="#788A9C" stroke-width="1.2" stroke-linecap="round" stroke-linejoin="round"/>
</svg>
