<svg width="18" height="19" viewBox="0 0 18 19" fill="none" xmlns="http://www.w3.org/2000/svg">
<path d="M12.9375 5.72485H2.8125C2.50184 5.72485 2.25 5.97669 2.25 6.28735V14.1624C2.25 14.473 2.50184 14.7249 2.8125 14.7249H12.9375C13.2482 14.7249 13.5 14.473 13.5 14.1624V6.28735C13.5 5.97669 13.2482 5.72485 12.9375 5.72485Z" stroke="#FFFFFF" stroke-width="1.2" stroke-linecap="round" stroke-linejoin="round"/>
<path d="M4.5 5.72485V4.03735C4.5 3.88817 4.55926 3.7451 4.66475 3.63961C4.77024 3.53412 4.91332 3.47485 5.0625 3.47485H15.1875C15.3367 3.47485 15.4798 3.53412 15.5852 3.63961C15.6907 3.7451 15.75 3.88817 15.75 4.03735V11.9124C15.75 12.0615 15.6907 12.2046 15.5852 12.3101C15.4798 12.4156 15.3367 12.4749 15.1875 12.4749H13.5" stroke="#FFFFFF" stroke-width="1.2" stroke-linecap="round" stroke-linejoin="round"/>
<path d="M2.25 7.97485H13.5" stroke="#FFFFFF" stroke-width="1.2" stroke-linecap="round" stroke-linejoin="round"/>
</svg>
