<svg width="15" height="15" viewBox="0 0 15 15" fill="none" xmlns="http://www.w3.org/2000/svg">
<rect x="4.6" y="0.6" width="9.8" height="9.8" rx="1.4" stroke="#788A9C" stroke-width="1.2"/>
<rect x="2.6" y="2.6" width="9.8" height="9.8" rx="1.4" fill="white" stroke="#788A9C" stroke-width="1.2"/>
<rect x="0.6" y="4.6" width="9.8" height="9.8" rx="1.4" fill="white" stroke="#788A9C" stroke-width="1.2"/>
<path d="M8.18603 8.43352L7.20115 7.44973L7.52431 7.12693C7.61151 7.03982 7.72052 6.99755 7.85132 7.00011C7.98213 7.00267 8.09113 7.04751 8.17834 7.13461L8.50919 7.4651C8.5964 7.55221 8.64 7.65981 8.64 7.78791C8.64 7.91601 8.5964 8.02361 8.50919 8.11072L8.18603 8.43352ZM7.86286 8.75633L3.98488 12.63H3V11.6462L6.87798 7.77254L7.86286 8.75633Z" fill="#788A9C"/>
</svg>
