<svg width="24" height="24" viewBox="0 0 24 24" fill="none" xmlns="http://www.w3.org/2000/svg">
<path d="M12 14.4001C12.6365 14.4001 13.247 14.1472 13.6971 13.6972C14.1471 13.2471 14.4 12.6366 14.4 12.0001C14.4 11.3636 14.1471 10.7531 13.6971 10.303C13.247 9.85295 12.6365 9.6001 12 9.6001C11.3635 9.6001 10.753 9.85295 10.303 10.303C9.85286 10.7531 9.60001 11.3636 9.60001 12.0001C9.60001 12.6366 9.85286 13.2471 10.303 13.6972C10.753 14.1472 11.3635 14.4001 12 14.4001Z" fill="#BDBDBD"/>
<path fill-rule="evenodd" clip-rule="evenodd" d="M0.549606 12.0001C2.07841 7.1317 6.62641 3.6001 12 3.6001C17.3736 3.6001 21.9216 7.1317 23.4504 12.0001C21.9216 16.8685 17.3736 20.4001 12 20.4001C6.62641 20.4001 2.07841 16.8685 0.549606 12.0001ZM16.8 12.0001C16.8 13.2731 16.2943 14.494 15.3941 15.3942C14.4939 16.2944 13.273 16.8001 12 16.8001C10.727 16.8001 9.50607 16.2944 8.60589 15.3942C7.70572 14.494 7.20001 13.2731 7.20001 12.0001C7.20001 10.7271 7.70572 9.50616 8.60589 8.60599C9.50607 7.70581 10.727 7.2001 12 7.2001C13.273 7.2001 14.4939 7.70581 15.3941 8.60599C16.2943 9.50616 16.8 10.7271 16.8 12.0001Z" fill="#BDBDBD"/>
</svg>
