<svg width="219" height="50" viewBox="0 0 219 50" fill="none" xmlns="http://www.w3.org/2000/svg">
<g clip-path="url(#clip0_215_697)">
<path d="M-0.124268 0.384766H50.001V26.961L47.5199 30.7685L50.001 34.1571V49.6155H-0.124268V24.5623L1.4264 22.8109L-0.124268 21.1356V0.384766Z" fill="#016FD0"/>
<path d="M9.60616 34.6901V26.9609H17.9386L18.8326 28.1056L19.7562 26.9609H50.001V34.1572C50.001 34.1572 49.2101 34.6824 48.2953 34.6902H31.5481L30.5402 33.4717V34.6902H27.2373V32.6103C27.2373 32.6103 26.7861 32.9006 25.8107 32.9006H24.6864V34.6902H19.6855L18.7928 33.521L17.8864 34.6902L9.60616 34.6901ZM-0.124268 21.1355L1.75473 16.833H5.00431L6.07061 19.2431V16.833H10.1101L10.7449 18.5749L11.3603 16.833H29.4935V17.7087C29.4935 17.7087 30.4467 16.833 32.0133 16.833L37.8969 16.8532L38.9448 19.2317V16.833H42.3252L43.2556 18.1993V16.833H46.6671V24.5622H43.2556L42.364 23.1915V24.5622H37.3974L36.8979 23.3438H35.5627L35.0713 24.5622H31.7032C30.3552 24.5622 29.4935 23.7044 29.4935 23.7044V24.5622H24.415L23.4071 23.3438V24.5622H4.52291L4.02378 23.3438H2.69275L2.19729 24.5622H-0.124268V21.1355Z" fill="white"/>
<path d="M2.41864 17.7861L-0.115723 23.5735H1.53429L2.00192 22.4146H4.72045L5.18561 23.5735H6.872L4.33995 17.7861H2.41864ZM3.35631 19.133L4.18493 21.1582H2.52527L3.35631 19.133ZM7.04642 23.5725V17.7852L9.39114 17.7937L10.7549 21.5251L12.0861 17.7852H14.4121V23.5725H12.9389V19.3082L11.3774 23.5725H10.0854L8.51956 19.3082V23.5725H7.04642ZM15.42 23.5725V17.7852H20.2271V19.0797H16.9087V20.0696H20.1495V21.2881H16.9087V22.3161H20.2271V23.5725H15.42ZM21.08 17.7861V23.5735H22.5531V21.5175H23.1733L24.9396 23.5735H26.7399L24.8015 21.4413C25.597 21.3754 26.4176 20.7048 26.4176 19.6637C26.4176 18.4458 25.4444 17.7861 24.3582 17.7861H21.08ZM22.5531 19.0807H24.237C24.641 19.0807 24.9348 19.391 24.9348 19.6898C24.9348 20.0743 24.5541 20.2991 24.2588 20.2991H22.5531V19.0807ZM28.5232 23.5725H27.019V17.7852H28.5232V23.5725ZM32.0897 23.5725H31.765C30.1941 23.5725 29.2403 22.357 29.2403 20.7026C29.2403 19.0074 30.1834 17.7852 32.1672 17.7852H33.7954V19.1558H32.1077C31.3024 19.1558 30.7329 19.7731 30.7329 20.7169C30.7329 21.8377 31.3841 22.3084 32.3223 22.3084H32.7099L32.0897 23.5725ZM35.2952 17.7861L32.7609 23.5735H34.4109L34.8784 22.4146H37.597L38.0622 23.5735H39.7485L37.2166 17.7861H35.2952ZM36.2329 19.133L37.0615 21.1582H35.4018L36.2329 19.133ZM39.9205 23.5725V17.7852H41.7935L44.1849 21.4213V17.7852H45.658V23.5725H43.8457L41.3937 19.8412V23.5725H39.9205ZM10.613 33.7004V27.913H15.42V29.2076H12.1016V30.1976H15.3425V31.4159H12.1016V32.444H15.42V33.7004H10.613ZM34.1676 33.7004V27.913H38.9746V29.2076H35.6562V30.1976H38.8816V31.4159H35.6562V32.444H38.9746V33.7004H34.1676ZM15.6066 33.7004L17.9471 30.8425L15.5508 27.913H17.4068L18.8339 29.724L20.2659 27.913H22.0492L19.6844 30.8067L22.0292 33.7004H20.1736L18.7879 31.9181L17.4359 33.7004H15.6066ZM22.2042 27.914V33.7014H23.7161V31.8739H25.2668C26.5788 31.8739 27.5734 31.1902 27.5734 29.8606C27.5734 28.7592 26.7934 27.914 25.4582 27.914H22.2042ZM23.7161 29.2229H25.3491C25.773 29.2229 26.076 29.478 26.076 29.8892C26.076 30.2754 25.7745 30.5555 25.3443 30.5555H23.7161V29.2229ZM28.213 27.913V33.7004H29.6861V31.6444H30.3064L32.0727 33.7004H33.8729L31.9346 31.5683C32.7301 31.5023 33.5507 30.8317 33.5507 29.7906C33.5507 28.5728 32.5774 27.913 31.4912 27.913H28.213ZM29.6861 29.2076H31.3701C31.774 29.2076 32.0679 29.5179 32.0679 29.8168C32.0679 30.2013 31.6872 30.426 31.3919 30.426H29.6861V29.2076ZM39.6569 33.7004V32.444H42.6051C43.0414 32.444 43.2303 32.2124 43.2303 31.9585C43.2303 31.7152 43.042 31.4692 42.6051 31.4692H41.2729C40.1148 31.4692 39.4699 30.7763 39.4699 29.7359C39.4699 28.8079 40.0605 27.913 41.7814 27.913H44.6501L44.0298 29.2152H41.5487C41.0745 29.2152 40.9285 29.4596 40.9285 29.6931C40.9285 29.9329 41.1089 30.1976 41.4712 30.1976H42.8668C44.1577 30.1976 44.7179 30.9167 44.7179 31.8585C44.7179 32.8711 44.0937 33.7004 42.7965 33.7004H39.6569ZM45.0637 33.7004V32.444H48.0119C48.4481 32.444 48.637 32.2124 48.637 31.9585C48.637 31.7152 48.4487 31.4692 48.0119 31.4692H46.6796C45.5216 31.4692 44.8767 30.7763 44.8767 29.7359C44.8767 28.8079 45.4672 27.913 47.1881 27.913H50.0568L49.4365 29.2152H46.9555C46.4812 29.2152 46.3352 29.4596 46.3352 29.6931C46.3352 29.9329 46.5156 30.1976 46.878 30.1976H48.2736C49.5645 30.1976 50.1247 30.9167 50.1247 31.8585C50.1247 32.8711 49.5005 33.7004 48.2033 33.7004H45.0637Z" fill="#016FD0"/>
</g>
<path d="M66.225 27.6L68.55 21.05H68.6L70.85 27.6H66.225ZM66.6 16.65L59.85 34.5H63.8L65.2 30.525H71.875L73.225 34.5H77.3L70.625 16.65H66.6ZM78.5643 21.575V34.5H82.1143V27C82.1143 26.3667 82.2059 25.8583 82.3893 25.475C82.5726 25.075 82.7893 24.775 83.0393 24.575C83.3059 24.3583 83.5726 24.2167 83.8393 24.15C84.1226 24.0667 84.3476 24.025 84.5143 24.025C85.0809 24.025 85.5059 24.125 85.7893 24.325C86.0893 24.5083 86.2976 24.7583 86.4143 25.075C86.5476 25.3917 86.6226 25.7417 86.6393 26.125C86.6559 26.4917 86.6643 26.8667 86.6643 27.25V34.5H90.2143V27.3C90.2143 26.9 90.2393 26.5083 90.2893 26.125C90.3559 25.725 90.4726 25.375 90.6393 25.075C90.8226 24.7583 91.0643 24.5083 91.3643 24.325C91.6809 24.125 92.0893 24.025 92.5893 24.025C93.0893 24.025 93.4809 24.1083 93.7643 24.275C94.0643 24.4417 94.2893 24.6667 94.4393 24.95C94.5893 25.2333 94.6809 25.5667 94.7143 25.95C94.7476 26.3333 94.7643 26.7417 94.7643 27.175V34.5H98.3143V25.85C98.3143 25.0167 98.1976 24.3083 97.9643 23.725C97.7309 23.125 97.4059 22.6417 96.9893 22.275C96.5726 21.9083 96.0726 21.6417 95.4893 21.475C94.9059 21.3083 94.2726 21.225 93.5893 21.225C92.6893 21.225 91.9059 21.4417 91.2393 21.875C90.5893 22.3083 90.0726 22.8083 89.6893 23.375C89.3393 22.575 88.8226 22.0167 88.1393 21.7C87.4726 21.3833 86.7309 21.225 85.9143 21.225C85.0643 21.225 84.3059 21.4083 83.6393 21.775C82.9893 22.1417 82.4309 22.6583 81.9643 23.325H81.9143V21.575H78.5643ZM101.496 16.65V34.5H115.046V31.2H105.421V26.825H114.071V23.775H105.421V19.95H114.846V16.65H101.496ZM120.631 27.7L115.981 34.5H119.956L122.656 30.425L125.356 34.5H129.406L124.631 27.625L128.881 21.575H124.956L122.706 24.95L120.431 21.575H116.381L120.631 27.7Z" fill="#006FCF"/>
<path d="M138.245 16.65H141.42L144.645 30.3H144.695L148.295 16.65H151.495L154.995 30.3H155.045L158.37 16.65H161.545L156.62 34.5H153.445L149.87 20.85H149.82L146.17 34.5H142.945L138.245 16.65ZM163.604 16.65H175.929V19.35H166.729V24.025H174.804V26.575H166.729V34.5H163.604V16.65ZM178.373 16.65H182.773L187.698 30.625H187.748L192.548 16.65H196.898V34.5H193.923V20.725H193.873L188.923 34.5H186.348L181.398 20.725H181.348V34.5H178.373V16.65ZM204.965 21.85H207.515V26.9H212.54V29.45H207.515V34.5H204.965V29.45H199.94V26.9H204.965V21.85Z" fill="#00175A"/>
<defs>
<clipPath id="clip0_215_697">
<rect width="50" height="50" fill="white"/>
</clipPath>
</defs>
</svg>
