<svg width="16" height="15" viewBox="0 0 16 15" fill="none" xmlns="http://www.w3.org/2000/svg">
<path d="M7.99966 11.25C8.17489 11.25 8.32188 11.1907 8.44063 11.0722C8.55938 10.9537 8.61875 10.8068 8.61875 10.6316C8.61875 10.4564 8.55949 10.3094 8.44096 10.1906C8.32243 10.0719 8.17555 10.0125 8.00034 10.0125C7.82511 10.0125 7.67813 10.0718 7.55938 10.1903C7.44063 10.3088 7.38125 10.4557 7.38125 10.6309C7.38125 10.8061 7.44051 10.9531 7.55904 11.0719C7.67758 11.1906 7.82445 11.25 7.99966 11.25ZM7.49375 8.38125H8.61875V3.6375H7.49375V8.38125ZM8.00499 15C6.97081 15 5.99894 14.8031 5.08936 14.4094C4.17979 14.0156 3.38438 13.4781 2.70312 12.7969C2.02188 12.1156 1.48438 11.3197 1.09063 10.4092C0.696875 9.49873 0.5 8.52586 0.5 7.49063C0.5 6.45539 0.696875 5.48252 1.09063 4.57202C1.48438 3.66151 2.02188 2.86875 2.70312 2.19375C3.38438 1.51875 4.18026 0.984375 5.09077 0.590625C6.00127 0.196875 6.97414 0 8.00938 0C9.04461 0 10.0175 0.196875 10.928 0.590625C11.8385 0.984375 12.6313 1.51875 13.3063 2.19375C13.9813 2.86875 14.5156 3.6625 14.9094 4.575C15.3031 5.4875 15.5 6.46084 15.5 7.49501C15.5 8.52919 15.3031 9.50106 14.9094 10.4106C14.5156 11.3202 13.9813 12.1145 13.3063 12.7934C12.6313 13.4724 11.8375 14.0099 10.925 14.4059C10.0125 14.802 9.03916 15 8.00499 15ZM8.00938 13.875C9.77813 13.875 11.2812 13.2531 12.5188 12.0094C13.7563 10.7656 14.375 9.25938 14.375 7.49063C14.375 5.72188 13.7574 4.21875 12.5223 2.98125C11.2871 1.74375 9.77969 1.125 8 1.125C6.2375 1.125 4.73438 1.74258 3.49063 2.97773C2.24688 4.21289 1.625 5.72031 1.625 7.5C1.625 9.2625 2.24688 10.7656 3.49063 12.0094C4.73438 13.2531 6.24063 13.875 8.00938 13.875Z" fill="#EB5757"/>
</svg>
