<svg width="18" height="19" viewBox="0 0 18 19" fill="none" xmlns="http://www.w3.org/2000/svg">
    <path d="M9 17.1387C7.94584 17.1387 6.96251 16.946 6.05001 16.5606C5.13751 16.1751 4.34376 15.6449 3.66876 14.9699C2.99376 14.2949 2.46354 13.5012 2.07812 12.5887C1.69271 11.6762 1.5 10.6928 1.5 9.63867C1.5 8.59283 1.69271 7.61367 2.07812 6.70117C2.46354 5.78867 2.99376 4.99492 3.66876 4.31992C4.34376 3.64492 5.13751 3.11263 6.05001 2.72305C6.96251 2.33347 7.94584 2.13867 9 2.13867C9.7 2.13867 10.3823 2.2345 11.0469 2.42617C11.7115 2.61784 12.3396 2.8991 12.9313 3.26993C13.0854 3.3616 13.1823 3.49076 13.2219 3.65742C13.2615 3.8241 13.2271 3.97827 13.1188 4.11993C13.0104 4.26159 12.8719 4.34492 12.7031 4.36992C12.5344 4.39492 12.3709 4.36159 12.2125 4.26993C11.7292 3.98243 11.2156 3.76367 10.6719 3.61366C10.1281 3.46366 9.57084 3.38866 9 3.38866C7.2375 3.38866 5.75521 3.9897 4.55312 5.19179C3.35103 6.39388 2.74999 7.87617 2.74999 9.63867C2.74999 11.4012 3.35103 12.8835 4.55312 14.0856C5.75521 15.2876 7.2375 15.8887 9 15.8887C10.7625 15.8887 12.2448 15.2876 13.4469 14.0856C14.649 12.8835 15.25 11.4012 15.25 9.63867C15.25 9.447 15.2427 9.26053 15.2281 9.07928C15.2135 8.89803 15.1875 8.71991 15.15 8.54491C15.125 8.36575 15.1552 8.19804 15.2406 8.04179C15.326 7.88554 15.4542 7.78867 15.625 7.75117C15.8 7.70533 15.9625 7.73033 16.1125 7.82617C16.2625 7.922 16.35 8.05742 16.375 8.2324C16.4167 8.45742 16.4479 8.68658 16.4687 8.91991C16.4896 9.15325 16.5 9.39283 16.5 9.63867C16.5 10.6928 16.3052 11.6762 15.9156 12.5887C15.526 13.5012 14.9938 14.2949 14.3188 14.9699C13.6438 15.6449 12.85 16.1751 11.9375 16.5606C11.025 16.946 10.0458 17.1387 9 17.1387ZM7.9125 11.2262L15.1375 3.99492C15.2583 3.87408 15.4073 3.81263 15.5844 3.81055C15.7615 3.80847 15.9167 3.86992 16.05 3.99492C16.1792 4.12408 16.2437 4.27825 16.2437 4.45743C16.2437 4.63659 16.1792 4.79075 16.05 4.91992L8.34999 12.6262C8.22499 12.7512 8.07916 12.8137 7.9125 12.8137C7.74584 12.8137 7.60001 12.7512 7.47501 12.6262L5.23749 10.3762C5.11667 10.2553 5.05834 10.1033 5.0625 9.91992C5.06666 9.73658 5.12916 9.5845 5.25 9.46368C5.37084 9.34284 5.52292 9.28242 5.70624 9.28242C5.88958 9.28242 6.04166 9.34284 6.16249 9.46368L7.9125 11.2262Z" fill="currentColor"/>
</svg>
