<svg width="18" height="19" viewBox="0 0 18 19" fill="none" xmlns="http://www.w3.org/2000/svg">
<path d="M5.07647 10.6387C5.35466 10.6387 5.59063 10.5413 5.78438 10.3466C5.97813 10.1518 6.075 9.91538 6.075 9.63721C6.075 9.35902 5.97763 9.12305 5.78289 8.9293C5.58817 8.73555 5.35171 8.63868 5.07353 8.63868C4.79534 8.63868 4.55937 8.73604 4.36562 8.93077C4.17187 9.1255 4.07499 9.36196 4.07499 9.64013C4.07499 9.91832 4.17236 10.1543 4.3671 10.348C4.56183 10.5418 4.79828 10.6387 5.07647 10.6387ZM9.00146 10.6387C9.27965 10.6387 9.51562 10.5413 9.70937 10.3466C9.90312 10.1518 9.99999 9.91538 9.99999 9.63721C9.99999 9.35902 9.90263 9.12305 9.70791 8.9293C9.51317 8.73555 9.27671 8.63868 8.99854 8.63868C8.72035 8.63868 8.48438 8.73604 8.29063 8.93077C8.09688 9.1255 8.00001 9.36196 8.00001 9.64013C8.00001 9.91832 8.09737 10.1543 8.29209 10.348C8.48683 10.5418 8.72329 10.6387 9.00146 10.6387ZM12.914 10.6387C13.1922 10.6387 13.4281 10.5413 13.6219 10.3466C13.8156 10.1518 13.9125 9.91538 13.9125 9.63721C13.9125 9.35902 13.8151 9.12305 13.6204 8.9293C13.4257 8.73555 13.1892 8.63868 12.911 8.63868C12.6329 8.63868 12.3969 8.73604 12.2031 8.93077C12.0094 9.1255 11.9125 9.36196 11.9125 9.64013C11.9125 9.91832 12.0099 10.1543 12.2046 10.348C12.3993 10.5418 12.6358 10.6387 12.914 10.6387ZM9.00332 17.1387C7.96804 17.1387 6.99513 16.9418 6.08458 16.548C5.17403 16.1543 4.37917 15.6178 3.69999 14.9387C3.02083 14.2595 2.48438 13.4643 2.09063 12.5532C1.69688 11.642 1.5 10.6684 1.5 9.63243C1.5 8.59643 1.69688 7.62285 2.09063 6.71168C2.48438 5.80051 3.02083 5.00742 3.69999 4.33242C4.37917 3.65742 5.17434 3.12305 6.0855 2.7293C6.99668 2.33555 7.97026 2.13867 9.00624 2.13867C10.0422 2.13867 11.0158 2.33555 11.927 2.7293C12.8382 3.12305 13.6313 3.65742 14.3063 4.33242C14.9813 5.00742 15.5156 5.80117 15.9094 6.71367C16.3031 7.62617 16.5 8.60007 16.5 9.63535C16.5 10.6706 16.3031 11.6435 15.9094 12.5541C15.5156 13.4646 14.9813 14.2587 14.3063 14.9364C13.6313 15.614 12.8375 16.1505 11.925 16.5457C11.0125 16.941 10.0386 17.1387 9.00332 17.1387ZM9.00624 15.8887C10.7437 15.8887 12.2188 15.2803 13.4313 14.0637C14.6438 12.847 15.25 11.3699 15.25 9.63243C15.25 7.89493 14.6445 6.41992 13.4336 5.20741C12.2227 3.99491 10.7448 3.38866 9 3.38866C7.26666 3.38866 5.79166 3.99413 4.575 5.20507C3.35833 6.41602 2.74999 7.89388 2.74999 9.63867C2.74999 11.372 3.35833 12.847 4.575 14.0637C5.79166 15.2803 7.26874 15.8887 9.00624 15.8887Z" fill="currentColor"/>
</svg>
