<svg width="18" height="19" viewBox="0 0 18 19" fill="none" xmlns="http://www.w3.org/2000/svg">
<path d="M4.24999 17.1387C3.90624 17.1387 3.61197 17.0163 3.36718 16.7715C3.12239 16.5267 3 16.2324 3 15.8887V7.96366C3 7.61992 3.12239 7.32565 3.36718 7.08085C3.61197 6.83607 3.90624 6.71367 4.24999 6.71367H5.37501V5.01367C5.37501 4.01075 5.72857 3.15586 6.43569 2.44898C7.14283 1.74211 7.99804 1.38867 9.00133 1.38867C10.0046 1.38867 10.8594 1.74211 11.5656 2.44898C12.2719 3.15586 12.625 4.01075 12.625 5.01367V6.71367H13.75C14.0938 6.71367 14.388 6.83607 14.6328 7.08085C14.8776 7.32565 15 7.61992 15 7.96366V15.8887C15 16.2324 14.8776 16.5267 14.6328 16.7715C14.388 17.0163 14.0938 17.1387 13.75 17.1387H4.24999ZM4.24999 15.8887H13.75V7.96366H4.24999V15.8887ZM9.0021 13.3887C9.40486 13.3887 9.74896 13.2479 10.0344 12.9664C10.3198 12.6849 10.4625 12.3465 10.4625 11.9512C10.4625 11.5637 10.3191 11.2189 10.0323 10.9168C9.74546 10.6147 9.40066 10.4637 8.9979 10.4637C8.59514 10.4637 8.25104 10.6147 7.96562 10.9168C7.68021 11.2189 7.5375 11.5658 7.5375 11.9574C7.5375 12.3491 7.68091 12.6855 7.96772 12.9668C8.25454 13.248 8.59934 13.3887 9.0021 13.3887ZM6.62499 6.71367H11.375V5.01367C11.375 4.35394 11.1442 3.79318 10.6827 3.33138C10.2212 2.86957 9.66079 2.63866 9.00146 2.63866C8.34215 2.63866 7.78124 2.86957 7.31874 3.33138C6.85624 3.79318 6.62499 4.35394 6.62499 5.01367V6.71367Z" fill="currentColor"/>
</svg>
