<svg width="18" height="19" viewBox="0 0 18 19" fill="none" xmlns="http://www.w3.org/2000/svg">
<path d="M4.24999 15.8887H13.75V7.96366H4.24999V15.8887ZM9.0021 13.3887C9.40486 13.3887 9.74896 13.2479 10.0344 12.9664C10.3198 12.6849 10.4625 12.3465 10.4625 11.9512C10.4625 11.5637 10.3191 11.2189 10.0323 10.9168C9.74546 10.6147 9.40066 10.4637 8.9979 10.4637C8.59514 10.4637 8.25104 10.6147 7.96562 10.9168C7.68021 11.2189 7.5375 11.5658 7.5375 11.9574C7.5375 12.3491 7.68091 12.6855 7.96772 12.9668C8.25454 13.248 8.59934 13.3887 9.0021 13.3887ZM4.24999 17.1387C3.90624 17.1387 3.61197 17.0163 3.36718 16.7715C3.12239 16.5267 3 16.2324 3 15.8887V7.96366C3 7.61992 3.12239 7.32565 3.36718 7.08085C3.61197 6.83607 3.90624 6.71367 4.24999 6.71367H10.125V5.01367C10.125 4.01075 10.4785 3.15586 11.1853 2.44898C11.8922 1.74211 12.7471 1.38867 13.75 1.38867C14.6375 1.38867 15.4083 1.66367 16.0625 2.21367C16.7167 2.76367 17.1292 3.44909 17.3 4.26993C17.3375 4.44075 17.2964 4.60742 17.1766 4.76992C17.0568 4.93242 16.9135 5.01367 16.7469 5.01367C16.5698 5.01367 16.4229 4.97408 16.3063 4.89492C16.1896 4.81576 16.1125 4.68868 16.075 4.51368C15.9542 3.98034 15.6794 3.5345 15.2506 3.17617C14.8219 2.81783 14.3217 2.63866 13.75 2.63866C13.0903 2.63866 12.5295 2.86957 12.0677 3.33138C11.6059 3.79318 11.375 4.35394 11.375 5.01367V6.71367H13.75C14.0938 6.71367 14.388 6.83607 14.6328 7.08085C14.8776 7.32565 15 7.61992 15 7.96366V15.8887C15 16.2324 14.8776 16.5267 14.6328 16.7715C14.388 17.0163 14.0938 17.1387 13.75 17.1387H4.24999Z" fill="currentColor"/>
</svg>
