<svg width="16" height="17" viewBox="0 0 16 17" fill="none" xmlns="http://www.w3.org/2000/svg">
<path d="M8 0.5C6.41775 0.5 4.87103 0.969192 3.55544 1.84824C2.23985 2.72729 1.21447 3.97672 0.608967 5.43853C0.00346628 6.90034 -0.15496 8.50887 0.153721 10.0607C0.462403 11.6126 1.22433 13.038 2.34315 14.1569C3.46197 15.2757 4.88743 16.0376 6.43928 16.3463C7.99113 16.655 9.59966 16.4965 11.0615 15.891C12.5233 15.2855 13.7727 14.2602 14.6518 12.9446C15.5308 11.629 16 10.0822 16 8.5C15.9959 6.37952 15.1518 4.34705 13.6524 2.84764C12.153 1.34823 10.1205 0.504066 8 0.5ZM11.8077 7.1L7.3 11.4077C7.18347 11.5173 7.02922 11.5779 6.86923 11.5769C6.79103 11.578 6.71338 11.5637 6.64077 11.5346C6.56815 11.5056 6.50201 11.4624 6.44616 11.4077L4.19231 9.25384C4.1298 9.1993 4.07896 9.13269 4.04285 9.058C4.00673 8.98331 3.9861 8.90209 3.98218 8.81922C3.97826 8.73635 3.99113 8.65354 4.02003 8.57578C4.04893 8.49801 4.09325 8.42689 4.15034 8.36669C4.20742 8.3065 4.27609 8.25846 4.35221 8.22548C4.42833 8.19249 4.51034 8.17524 4.5933 8.17476C4.67626 8.17428 4.75846 8.19058 4.83496 8.22267C4.91146 8.25477 4.98068 8.302 5.03846 8.36154L6.86923 10.1077L10.9615 6.20769C11.0812 6.1033 11.2366 6.0492 11.3952 6.0567C11.5538 6.06421 11.7034 6.13273 11.8126 6.24796C11.9219 6.36318 11.9824 6.51618 11.9815 6.67497C11.9806 6.83376 11.9183 6.98605 11.8077 7.1Z" fill="#1E95FE"/>
</svg>
