<svg width="18" height="19" viewBox="0 0 18 19" fill="none" xmlns="http://www.w3.org/2000/svg">
<path d="M13.1625 7.69571L15.9062 4.9457C16.0296 4.8207 16.176 4.7582 16.3456 4.7582C16.5152 4.7582 16.6625 4.82092 16.7875 4.94636C16.9125 5.0718 16.975 5.22075 16.975 5.39323C16.975 5.5657 16.9125 5.71444 16.7875 5.83944L13.6 9.02694C13.475 9.15194 13.3292 9.21444 13.1625 9.21444C12.9958 9.21444 12.85 9.15194 12.725 9.02694L11.1313 7.43319C11.0063 7.30764 10.9438 7.15855 10.9438 6.98591C10.9438 6.81327 11.0063 6.66445 11.1313 6.53945C11.2563 6.41445 11.4021 6.35195 11.5688 6.35195C11.7354 6.35195 11.8812 6.41445 12.0062 6.53945L13.1625 7.69571ZM6.75 9.62694C5.925 9.62694 5.23958 9.35403 4.69374 8.8082C4.14792 8.26237 3.87501 7.57695 3.87501 6.75195C3.87501 5.92695 4.14792 5.24153 4.69374 4.69571C5.23958 4.14987 5.925 3.87695 6.75 3.87695C7.575 3.87695 8.26042 4.14987 8.80626 4.69571C9.35208 5.24153 9.62499 5.92695 9.62499 6.75195C9.62499 7.57695 9.35208 8.26237 8.80626 8.8082C8.26042 9.35403 7.575 9.62694 6.75 9.62694ZM0.75 14.3895V13.7644C0.75 13.3311 0.859375 12.9363 1.07812 12.5801C1.29688 12.2238 1.60417 11.9561 2.00001 11.7769C2.88334 11.3728 3.70142 11.0822 4.45423 10.9051C5.20706 10.728 5.97164 10.6395 6.74798 10.6395C7.52433 10.6395 8.2875 10.728 9.0375 10.9051C9.7875 11.0822 10.6042 11.3728 11.4875 11.7769C11.8833 11.9644 12.1927 12.2342 12.4156 12.5863C12.6385 12.9384 12.75 13.3311 12.75 13.7644V14.3895C12.75 14.7332 12.6276 15.0275 12.3828 15.2723C12.138 15.5171 11.8438 15.6394 11.5 15.6394H1.99999C1.65624 15.6394 1.36197 15.5171 1.11718 15.2723C0.872394 15.0275 0.75 14.7332 0.75 14.3895ZM1.99999 14.3895H11.5V13.7644C11.5 13.5853 11.4511 13.4165 11.3531 13.2582C11.2552 13.0999 11.125 12.9811 10.9625 12.9019C10.1458 12.5144 9.41874 12.2488 8.78124 12.1051C8.14374 11.9613 7.46666 11.8894 6.75 11.8894C6.03334 11.8894 5.35417 11.9613 4.71249 12.1051C4.07083 12.2488 3.34167 12.5144 2.52501 12.9019C2.36249 12.9811 2.23436 13.0999 2.14061 13.2582C2.04686 13.4165 1.99999 13.5853 1.99999 13.7644V14.3895ZM6.75 8.37695C7.2125 8.37695 7.59896 8.22175 7.90937 7.91133C8.21979 7.60091 8.37501 7.21445 8.37501 6.75195C8.37501 6.28945 8.21979 5.90299 7.90937 5.59258C7.59896 5.28215 7.2125 5.12694 6.75 5.12694C6.2875 5.12694 5.90104 5.28215 5.59063 5.59258C5.28021 5.90299 5.12499 6.28945 5.12499 6.75195C5.12499 7.21445 5.28021 7.60091 5.59063 7.91133C5.90104 8.22175 6.2875 8.37695 6.75 8.37695Z" fill="currentColor"/>
</svg>
