<svg width="18" height="19" viewBox="0 0 18 19" fill="none" xmlns="http://www.w3.org/2000/svg">
<path d="M8.29932 8.88191L6.38644 10.7948C6.24818 10.9349 6.08399 11.0015 5.89386 10.9945C5.70375 10.9875 5.5368 10.9139 5.39301 10.7738C5.26119 10.6336 5.19412 10.4678 5.19178 10.2763C5.18945 10.0848 5.25836 9.91894 5.39849 9.77882L8.50953 6.66776C8.58426 6.59303 8.66196 6.54047 8.74263 6.51011C8.82327 6.47975 8.90969 6.46458 9.00187 6.46458C9.09405 6.46458 9.17985 6.47975 9.25925 6.51011C9.33866 6.54047 9.41574 6.59303 9.49047 6.66776L12.6155 9.79282C12.7557 9.93295 12.8246 10.0964 12.8222 10.2833C12.8199 10.4701 12.7528 10.6336 12.621 10.7738C12.4772 10.9139 12.3084 10.9851 12.1145 10.9875C11.9207 10.9898 11.7537 10.9209 11.6136 10.7808L9.70068 8.88191V15.6646C9.70068 15.8631 9.63329 16.0295 9.49852 16.1638C9.36375 16.2981 9.19676 16.3652 8.99754 16.3652C8.79832 16.3652 8.63215 16.2981 8.49902 16.1638C8.36589 16.0295 8.29932 15.8631 8.29932 15.6646V8.88191ZM2.27344 6.45758V4.31346C2.27344 3.93509 2.4124 3.60694 2.69034 3.32901C2.96827 3.05108 3.29642 2.91211 3.67479 2.91211H14.3252C14.7036 2.91211 15.0317 3.05108 15.3097 3.32901C15.5876 3.60694 15.7266 3.93509 15.7266 4.31346V6.45758C15.7266 6.65609 15.6592 6.82251 15.5244 6.95681C15.3896 7.09111 15.2226 7.15825 15.0234 7.15825C14.8242 7.15825 14.658 7.09111 14.5249 6.95681C14.3918 6.82251 14.3252 6.65609 14.3252 6.45758V4.31346H3.67479V6.45758C3.67479 6.65609 3.60741 6.82251 3.47264 6.95681C3.33787 7.09111 3.17087 7.15825 2.97165 7.15825C2.77244 7.15825 2.60626 7.09111 2.47313 6.95681C2.34 6.82251 2.27344 6.65609 2.27344 6.45758Z" fill="currentColor"/>
</svg>
