<svg width="18" height="19" viewBox="0 0 18 19" fill="none" xmlns="http://www.w3.org/2000/svg">
<path d="M8.15001 12.5887L11.0563 9.68242C11.1813 9.55742 11.3292 9.497 11.5 9.50118C11.6708 9.50534 11.8188 9.56992 11.9438 9.69492C12.0688 9.81992 12.1313 9.96865 12.1313 10.1411C12.1313 10.3136 12.0688 10.4607 11.9438 10.5824L8.5875 13.9387C8.4625 14.0637 8.31667 14.1262 8.15001 14.1262C7.98333 14.1262 7.83749 14.0637 7.71249 13.9387L5.98125 12.2199C5.85625 12.0982 5.79375 11.9511 5.79375 11.7786C5.79375 11.6061 5.85625 11.4574 5.98125 11.3324C6.10625 11.2074 6.25416 11.147 6.42499 11.1512C6.59582 11.1553 6.74374 11.2158 6.86874 11.3324L8.15001 12.5887ZM3.49999 17.1387C3.16249 17.1387 2.86978 17.0147 2.62187 16.7668C2.37396 16.5189 2.25 16.2262 2.25 15.8887V4.63867C2.25 4.30117 2.37396 4.00846 2.62187 3.76055C2.86978 3.51262 3.16249 3.38866 3.49999 3.38866H4.56249V2.78868C4.56249 2.6045 4.62479 2.45013 4.74938 2.32555C4.87396 2.20097 5.02834 2.13867 5.2125 2.13867C5.40021 2.13867 5.55756 2.20097 5.68453 2.32555C5.81151 2.45013 5.87499 2.6045 5.87499 2.78868V3.38866H12.125V2.78868C12.125 2.6045 12.1873 2.45013 12.3119 2.32555C12.4365 2.20097 12.5908 2.13867 12.775 2.13867C12.9627 2.13867 13.1201 2.20097 13.247 2.32555C13.374 2.45013 13.4375 2.6045 13.4375 2.78868V3.38866H14.5C14.8375 3.38866 15.1302 3.51262 15.3781 3.76055C15.626 4.00846 15.75 4.30117 15.75 4.63867V15.8887C15.75 16.2262 15.626 16.5189 15.3781 16.7668C15.1302 17.0147 14.8375 17.1387 14.5 17.1387H3.49999ZM3.49999 15.8887H14.5V8.01367H3.49999V15.8887ZM3.49999 6.76368H14.5V4.63867H3.49999V6.76368Z" fill="currentColor"/>
</svg>
