<svg width="18" height="19" viewBox="0 0 18 19" fill="none" xmlns="http://www.w3.org/2000/svg">
<path d="M3.49999 17.1387C3.16249 17.1387 2.86978 17.0147 2.62187 16.7668C2.37396 16.5189 2.25 16.2262 2.25 15.8887V4.63867C2.25 4.30117 2.37396 4.00846 2.62187 3.76055C2.86978 3.51262 3.16249 3.38866 3.49999 3.38866H4.56249V2.78868C4.56249 2.6045 4.62479 2.45013 4.74938 2.32555C4.87396 2.20097 5.02834 2.13867 5.2125 2.13867C5.40021 2.13867 5.55756 2.20097 5.68453 2.32555C5.81151 2.45013 5.87499 2.6045 5.87499 2.78868V3.38866H12.125V2.78868C12.125 2.6045 12.1873 2.45013 12.3119 2.32555C12.4365 2.20097 12.5908 2.13867 12.775 2.13867C12.9627 2.13867 13.1201 2.20097 13.247 2.32555C13.374 2.45013 13.4375 2.6045 13.4375 2.78868V3.38866H14.5C14.8375 3.38866 15.1302 3.51262 15.3781 3.76055C15.626 4.00846 15.75 4.30117 15.75 4.63867V15.8887C15.75 16.2262 15.626 16.5189 15.3781 16.7668C15.1302 17.0147 14.8375 17.1387 14.5 17.1387H3.49999ZM3.49999 15.8887H14.5V8.01367H3.49999V15.8887ZM3.49999 6.76368H14.5V4.63867H3.49999V6.76368Z" fill="currentColor"/>
<path d="M8.9999 13.4627C10.2597 13.4627 11.281 12.4414 11.281 11.1815C11.281 9.92169 10.2597 8.90039 8.9999 8.90039C7.74005 8.90039 6.71875 9.92169 6.71875 11.1815C6.71875 12.4414 7.74005 13.4627 8.9999 13.4627Z" stroke="currentColor" stroke-linecap="round" stroke-linejoin="round"/>
<path d="M5.57812 15.1738C5.97653 14.6425 6.49314 14.2114 7.08705 13.9144C7.68095 13.6175 8.33584 13.4629 8.99984 13.4629C9.66385 13.4629 10.3187 13.6175 10.9126 13.9144C11.5065 14.2114 12.0232 14.6425 12.4216 15.1738" stroke="currentColor" stroke-linecap="round" stroke-linejoin="round"/>
</svg>
