<svg width="18" height="19" viewBox="0 0 18 19" fill="none" xmlns="http://www.w3.org/2000/svg">
<g clip-path="url(#clip0_5267_121841)">
<path d="M9.79688 12.1953C10.6253 12.1953 11.2969 11.5237 11.2969 10.6953C11.2969 9.86689 10.6253 9.19531 9.79688 9.19531C8.96845 9.19531 8.29688 9.86689 8.29688 10.6953C8.29688 11.5237 8.96845 12.1953 9.79688 12.1953Z" fill="#788A9C"/>
<path d="M5.01562 12.1953C5.84405 12.1953 6.51562 11.5237 6.51562 10.6953C6.51562 9.86689 5.84405 9.19531 5.01562 9.19531C4.1872 9.19531 3.51562 9.86689 3.51562 10.6953C3.51562 11.5237 4.1872 12.1953 5.01562 12.1953Z" fill="#788A9C"/>
<path d="M14.5781 12.1953C15.4066 12.1953 16.0781 11.5237 16.0781 10.6953C16.0781 9.86689 15.4066 9.19531 14.5781 9.19531C13.7497 9.19531 13.0781 9.86689 13.0781 10.6953C13.0781 11.5237 13.7497 12.1953 14.5781 12.1953Z" fill="#788A9C"/>
</g>
<defs>
<clipPath id="clip0_5267_121841">
<rect width="18" height="18" fill="white" transform="translate(0 0.898438)"/>
</clipPath>
</defs>
</svg>
