<svg width="18" height="18" viewBox="0 0 18 18" fill="none" xmlns="http://www.w3.org/2000/svg">
<g clip-path="url(#clip0_1256_57860)">
<mask id="path-1-inside-1_1256_57860" fill="white">
<rect x="1" width="16" height="18" rx="1"/>
</mask>
<rect x="1" width="16" height="18" rx="1" stroke="#788A9C" stroke-width="2.4" mask="url(#path-1-inside-1_1256_57860)"/>
<path d="M6.35 9H11.14V9.95C10.7733 10.3633 10.44 10.7933 10.14 11.24C9.84 11.68 9.57667 12.15 9.35 12.65C9.13 13.1433 8.95 13.6667 8.81 14.22C8.67 14.7733 8.57667 15.3667 8.53 16H7.28C7.32 15.4467 7.41333 14.9 7.56 14.36C7.71333 13.82 7.90667 13.2967 8.14 12.79C8.38 12.2833 8.65667 11.7967 8.97 11.33C9.28333 10.8633 9.62 10.4267 9.98 10.02H6.35V9Z" fill="#788A9C"/>
<path d="M8.78 -2.14C9.28 -2.14 9.68667 -2.02333 10 -1.79C10.32 -1.56333 10.5667 -1.27 10.74 -0.91C10.92 -0.556667 11.04 -0.166667 11.1 0.26C11.1667 0.686666 11.2 1.1 11.2 1.5C11.2 1.9 11.1667 2.31333 11.1 2.74C11.04 3.16667 10.92 3.56 10.74 3.92C10.5667 4.27333 10.32 4.56667 10 4.8C9.68667 5.02667 9.28 5.14 8.78 5.14C8.28 5.14 7.87 5.02667 7.55 4.8C7.23667 4.56667 6.99 4.27333 6.81 3.92C6.63667 3.56 6.51667 3.16667 6.45 2.74C6.39 2.31333 6.36 1.9 6.36 1.5C6.36 1.1 6.39 0.686666 6.45 0.26C6.51667 -0.166667 6.63667 -0.556667 6.81 -0.91C6.99 -1.27 7.23667 -1.56333 7.55 -1.79C7.87 -2.02333 8.28 -2.14 8.78 -2.14ZM8.78 4.19C9.02667 4.19 9.23333 4.12 9.4 3.98C9.56667 3.83333 9.69667 3.64 9.79 3.4C9.89 3.15333 9.96 2.86667 10 2.54C10.04 2.21333 10.06 1.86667 10.06 1.5C10.06 1.13333 10.04 0.79 10 0.47C9.96 0.143333 9.89 -0.143334 9.79 -0.39C9.69667 -0.636667 9.56667 -0.83 9.4 -0.97C9.23333 -1.11667 9.02667 -1.19 8.78 -1.19C8.52667 -1.19 8.31667 -1.11667 8.15 -0.97C7.99 -0.83 7.86 -0.636667 7.76 -0.39C7.66667 -0.143334 7.6 0.143333 7.56 0.47C7.52 0.79 7.5 1.13333 7.5 1.5C7.5 1.86667 7.52 2.21333 7.56 2.54C7.6 2.86667 7.66667 3.15333 7.76 3.4C7.86 3.64 7.99 3.83333 8.15 3.98C8.31667 4.12 8.52667 4.19 8.78 4.19Z" fill="#788A9C"/>
</g>
<defs>
<clipPath id="clip0_1256_57860">
<rect width="18" height="18" fill="white"/>
</clipPath>
</defs>
</svg>
