<svg width="19" height="18" viewBox="0 0 19 18" fill="none" xmlns="http://www.w3.org/2000/svg">
<path d="M5.625 10.125C7.1783 10.125 8.4375 8.8658 8.4375 7.3125C8.4375 5.7592 7.1783 4.5 5.625 4.5C4.0717 4.5 2.8125 5.7592 2.8125 7.3125C2.8125 8.8658 4.0717 10.125 5.625 10.125Z" stroke="#788A9C" stroke-width="1.2" stroke-linecap="round" stroke-linejoin="round"/>
<path d="M10.6875 5.625H17.4375" stroke="#788A9C" stroke-width="1.2" stroke-linecap="round" stroke-linejoin="round"/>
<path d="M10.6875 9H17.4375" stroke="#788A9C" stroke-width="1.2" stroke-linecap="round" stroke-linejoin="round"/>
<path d="M12.375 12.375H17.4375" stroke="#788A9C" stroke-width="1.2" stroke-linecap="round" stroke-linejoin="round"/>
<path d="M1.26562 13.5C1.51346 12.5321 2.07641 11.6741 2.86572 11.0614C3.65503 10.4488 4.62581 10.1162 5.625 10.1162C6.62419 10.1162 7.59497 10.4488 8.38428 11.0614C9.17359 11.6741 9.73654 12.5321 9.98438 13.5" stroke="#788A9C" stroke-width="1.2" stroke-linecap="round" stroke-linejoin="round"/>
</svg>
