<svg width="18" height="18" viewBox="0 0 18 18" fill="none" xmlns="http://www.w3.org/2000/svg">
<path d="M14.6562 1.8125H16.625C16.7742 1.8125 16.9173 1.87176 17.0227 1.97725C17.1282 2.08274 17.1875 2.22582 17.1875 2.375V4.34375" stroke="#788A9C" stroke-width="1.2" stroke-linecap="round" stroke-linejoin="round"/>
<path d="M14.6562 16.1875H16.625C16.7742 16.1875 16.9173 16.1282 17.0227 16.0227C17.1282 15.9173 17.1875 15.7742 17.1875 15.625V13.6562" stroke="#788A9C" stroke-width="1.2" stroke-linecap="round" stroke-linejoin="round"/>
<path d="M3.34375 16.1875H1.375C1.22582 16.1875 1.08274 16.1282 0.977253 16.0227C0.871763 15.9173 0.8125 15.7742 0.8125 15.625V13.6562" stroke="#788A9C" stroke-width="1.2" stroke-linecap="round" stroke-linejoin="round"/>
<path d="M3.34375 1.8125H1.375C1.22582 1.8125 1.08274 1.87176 0.977253 1.97725C0.871763 2.08274 0.8125 2.22582 0.8125 2.375V4.34375" stroke="#788A9C" stroke-width="1.2" stroke-linecap="round" stroke-linejoin="round"/>
<path d="M5 12.3749C5.35957 11.6967 5.89712 11.1291 6.55492 10.7333C7.21271 10.3375 7.9659 10.1284 8.73359 10.1284C9.50129 10.1284 10.2545 10.3375 10.9123 10.7333C11.5701 11.1291 12.1076 11.6967 12.4672 12.3749M10.9834 7.875C10.9834 9.11764 9.97604 10.125 8.7334 10.125C7.49076 10.125 6.4834 9.11764 6.4834 7.875C6.4834 6.63236 7.49076 5.625 8.7334 5.625C9.97604 5.625 10.9834 6.63236 10.9834 7.875Z" stroke="#788A9C" stroke-width="1.2" stroke-linecap="round" stroke-linejoin="round"/>
</svg>
